<?xml version="1.0" encoding="utf-8" standalone="no"?>
<!DOCTYPE svg PUBLIC "-//W3C//DTD SVG 1.1//EN"
  "http://www.w3.org/Graphics/SVG/1.1/DTD/svg11.dtd">
<svg xmlns:xlink="http://www.w3.org/1999/xlink" width="602.45pt" height="362.761438pt" viewBox="0 0 602.45 362.761438" xmlns="http://www.w3.org/2000/svg" version="1.1">
 <metadata>
  <rdf:RDF xmlns:dc="http://purl.org/dc/elements/1.1/" xmlns:cc="http://creativecommons.org/ns#" xmlns:rdf="http://www.w3.org/1999/02/22-rdf-syntax-ns#">
   <cc:Work>
    <dc:type rdf:resource="http://purl.org/dc/dcmitype/StillImage"/>
    <dc:date>2026-08-19T18:31:17.442902</dc:date>
    <dc:format>image/svg+xml</dc:format>
    <dc:creator>
     <cc:Agent>
      <dc:title>Matplotlib v3.11.1, https://matplotlib.org/</dc:title>
     </cc:Agent>
    </dc:creator>
   </cc:Work>
  </rdf:RDF>
 </metadata>
 <defs>
  <style type="text/css">*{stroke-linejoin: round; stroke-linecap: butt}</style>
 </defs>
 <g id="figure_1">
  <g id="patch_1">
   <path d="M -0 362.761438 
L 602.45 362.761438 
L 602.45 0 
L -0 0 
z
" style="fill: #ffffff"/>
  </g>
  <g id="axes_1">
   <g id="patch_2">
    <path d="M 49.484102 304.23998 
L 595.25 304.23998 
L 595.25 28.575 
L 49.484102 28.575 
z
" style="fill: #ffffff"/>
   </g>
   <g id="matplotlib.axis_1">
    <g id="xtick_1">
     <g id="line2d_1">
      <path d="M 74.291642 304.23998 
L 74.291642 28.575 
" clip-path="url(#pc2021c9f99)" style="fill: none; stroke-dasharray: 2.96,1.28; stroke-dashoffset: 0; stroke: #e0e0e0; stroke-opacity: 0.7; stroke-width: 0.8"/>
     </g>
     <g id="line2d_2">
      <defs>
       <path id="m41398de975" d="M 0 0 
L 0 3.5 
" style="stroke: #000000; stroke-width: 0.8"/>
      </defs>
      <g>
       <use xlink:href="#m41398de975" x="74.291642" y="304.23998" style="stroke: #000000; stroke-width: 0.8"/>
      </g>
     </g>
     <g id="text_1">
      <!-- $H_2$ (4q) -->
      <g transform="translate(56.756642 319.11498) scale(0.105 -0.105)">
       <defs>
        <path id="DejaVuSans-Oblique-2b" d="M 1081 4666 
L 1716 4666 
L 1344 2753 
L 3634 2753 
L 4006 4666 
L 4641 4666 
L 3731 0 
L 3097 0 
L 3531 2222 
L 1241 2222 
L 806 0 
L 172 0 
L 1081 4666 
z
" transform="scale(0.015625)"/>
        <path id="DejaVuSans-15" d="M 1228 531 
L 3431 531 
L 3431 0 
L 469 0 
L 469 531 
Q 828 903 1448 1529 
Q 2069 2156 2228 2338 
Q 2531 2678 2651 2914 
Q 2772 3150 2772 3378 
Q 2772 3750 2511 3984 
Q 2250 4219 1831 4219 
Q 1534 4219 1204 4116 
Q 875 4013 500 3803 
L 500 4441 
Q 881 4594 1212 4672 
Q 1544 4750 1819 4750 
Q 2544 4750 2975 4387 
Q 3406 4025 3406 3419 
Q 3406 3131 3298 2873 
Q 3191 2616 2906 2266 
Q 2828 2175 2409 1742 
Q 1991 1309 1228 531 
z
" transform="scale(0.015625)"/>
        <path id="Helvetica-Bold-3" transform="scale(0.015625)"/>
        <path id="Helvetica-Bold-b" d="M 1394 -1291 
L 1172 -988 
Q 956 -713 713 -169 
Q 278 803 278 1744 
Q 278 2600 644 3444 
Q 891 4019 1366 4681 
L 2038 4681 
L 1847 4331 
Q 1453 3609 1300 2819 
Q 1200 2300 1200 1688 
Q 1200 731 1478 -72 
Q 1641 -547 2053 -1291 
L 1394 -1291 
z
" transform="scale(0.015625)"/>
        <path id="Helvetica-Bold-17" d="M 3347 1672 
L 3347 975 
L 2834 975 
L 2834 0 
L 1963 0 
L 1963 975 
L 169 975 
L 169 1753 
L 1834 4503 
L 2834 4503 
L 2834 1672 
L 3347 1672 
z
M 828 1672 
L 1963 1672 
L 1963 3628 
L 828 1672 
z
" transform="scale(0.015625)"/>
        <path id="Helvetica-Bold-54" d="M 2613 -1350 
L 2613 422 
Q 2513 216 2270 55 
Q 2028 -106 1609 -106 
Q 1019 -106 603 366 
Q 188 838 188 1625 
Q 188 2475 605 2984 
Q 1022 3494 1634 3494 
Q 2059 3494 2322 3284 
Q 2475 3166 2634 2894 
L 2634 3400 
L 3494 3400 
L 3494 -1350 
L 2613 -1350 
z
M 1209 1084 
Q 1384 656 1859 656 
Q 2319 656 2513 1050 
Q 2638 1309 2638 1706 
Q 2638 2019 2531 2266 
Q 2341 2709 1863 2709 
Q 1525 2709 1320 2450 
Q 1116 2191 1116 1663 
Q 1116 1309 1209 1084 
z
" transform="scale(0.015625)"/>
        <path id="Helvetica-Bold-c" d="M 947 -988 
L 725 -1291 
L 66 -1291 
Q 478 -547 641 -72 
Q 919 731 919 1688 
Q 919 2300 819 2819 
Q 666 3609 272 4331 
L 81 4681 
L 753 4681 
Q 1228 4019 1475 3444 
Q 1841 2600 1841 1744 
Q 1841 803 1406 -169 
Q 1163 -713 947 -988 
z
" transform="scale(0.015625)"/>
       </defs>
       <use xlink:href="#DejaVuSans-Oblique-2b" transform="translate(0 0.859375)"/>
       <use xlink:href="#DejaVuSans-15" transform="translate(75.195312 -14.140576) scale(0.7)"/>
       <use xlink:href="#Helvetica-Bold-3" transform="translate(122.46582 0.859375)"/>
       <use xlink:href="#Helvetica-Bold-b" transform="translate(150.249023 0.859375)"/>
       <use xlink:href="#Helvetica-Bold-17" transform="translate(183.549805 0.859375)"/>
       <use xlink:href="#Helvetica-Bold-54" transform="translate(239.165039 0.859375)"/>
       <use xlink:href="#Helvetica-Bold-c" transform="translate(300.249023 0.859375)"/>
      </g>
     </g>
    </g>
    <g id="xtick_2">
     <g id="line2d_3">
      <path d="M 239.675248 304.23998 
L 239.675248 28.575 
" clip-path="url(#pc2021c9f99)" style="fill: none; stroke-dasharray: 2.96,1.28; stroke-dashoffset: 0; stroke: #e0e0e0; stroke-opacity: 0.7; stroke-width: 0.8"/>
     </g>
     <g id="line2d_4">
      <g>
       <use xlink:href="#m41398de975" x="239.675248" y="304.23998" style="stroke: #000000; stroke-width: 0.8"/>
      </g>
     </g>
     <g id="text_2">
      <!-- $\mathrm{LiH}$ (6q) -->
      <g transform="translate(220.250248 319.21998) scale(0.105 -0.105)">
       <defs>
        <path id="DejaVuSans-2f" d="M 628 4666 
L 1259 4666 
L 1259 531 
L 3531 531 
L 3531 0 
L 628 0 
L 628 4666 
z
" transform="scale(0.015625)"/>
        <path id="DejaVuSans-4c" d="M 603 3500 
L 1178 3500 
L 1178 0 
L 603 0 
L 603 3500 
z
M 603 4863 
L 1178 4863 
L 1178 4134 
L 603 4134 
L 603 4863 
z
" transform="scale(0.015625)"/>
        <path id="DejaVuSans-2b" d="M 628 4666 
L 1259 4666 
L 1259 2753 
L 3553 2753 
L 3553 4666 
L 4184 4666 
L 4184 0 
L 3553 0 
L 3553 2222 
L 1259 2222 
L 1259 0 
L 628 0 
L 628 4666 
z
" transform="scale(0.015625)"/>
        <path id="Helvetica-Bold-19" d="M 1956 2941 
Q 2559 2941 2945 2531 
Q 3331 2122 3331 1484 
Q 3331 850 2953 365 
Q 2575 -119 1778 -119 
Q 922 -119 516 597 
Q 200 1156 200 2041 
Q 200 2559 244 2884 
Q 322 3463 547 3847 
Q 741 4175 1055 4375 
Q 1369 4575 1806 4575 
Q 2438 4575 2813 4251 
Q 3188 3928 3234 3391 
L 2347 3391 
Q 2347 3500 2263 3631 
Q 2119 3844 1828 3844 
Q 1394 3844 1209 3356 
Q 1109 3088 1072 2563 
Q 1238 2759 1456 2850 
Q 1675 2941 1956 2941 
z
M 1356 2091 
Q 1094 1888 1094 1434 
Q 1094 1069 1291 837 
Q 1488 606 1791 606 
Q 2088 606 2258 829 
Q 2428 1053 2428 1409 
Q 2428 1806 2234 2017 
Q 2041 2228 1759 2228 
Q 1531 2228 1356 2091 
z
" transform="scale(0.015625)"/>
       </defs>
       <use xlink:href="#DejaVuSans-2f" transform="translate(0 0.015625)"/>
       <use xlink:href="#DejaVuSans-4c" transform="translate(55.712891 0.015625)"/>
       <use xlink:href="#DejaVuSans-2b" transform="translate(83.496094 0.015625)"/>
       <use xlink:href="#Helvetica-Bold-3" transform="translate(158.691406 0.015625)"/>
       <use xlink:href="#Helvetica-Bold-b" transform="translate(186.474609 0.015625)"/>
       <use xlink:href="#Helvetica-Bold-19" transform="translate(219.775391 0.015625)"/>
       <use xlink:href="#Helvetica-Bold-54" transform="translate(275.390625 0.015625)"/>
       <use xlink:href="#Helvetica-Bold-c" transform="translate(336.474609 0.015625)"/>
      </g>
     </g>
    </g>
    <g id="xtick_3">
     <g id="line2d_5">
      <path d="M 405.058854 304.23998 
L 405.058854 28.575 
" clip-path="url(#pc2021c9f99)" style="fill: none; stroke-dasharray: 2.96,1.28; stroke-dashoffset: 0; stroke: #e0e0e0; stroke-opacity: 0.7; stroke-width: 0.8"/>
     </g>
     <g id="line2d_6">
      <g>
       <use xlink:href="#m41398de975" x="405.058854" y="304.23998" style="stroke: #000000; stroke-width: 0.8"/>
      </g>
     </g>
     <g id="text_3">
      <!-- $\mathrm{BeH}_2$ (6q) -->
      <g transform="translate(380.646354 319.11498) scale(0.105 -0.105)">
       <defs>
        <path id="DejaVuSans-25" d="M 1259 2228 
L 1259 519 
L 2272 519 
Q 2781 519 3026 730 
Q 3272 941 3272 1375 
Q 3272 1813 3026 2020 
Q 2781 2228 2272 2228 
L 1259 2228 
z
M 1259 4147 
L 1259 2741 
L 2194 2741 
Q 2656 2741 2882 2914 
Q 3109 3088 3109 3444 
Q 3109 3797 2882 3972 
Q 2656 4147 2194 4147 
L 1259 4147 
z
M 628 4666 
L 2241 4666 
Q 2963 4666 3353 4366 
Q 3744 4066 3744 3513 
Q 3744 3084 3544 2831 
Q 3344 2578 2956 2516 
Q 3422 2416 3680 2098 
Q 3938 1781 3938 1306 
Q 3938 681 3513 340 
Q 3088 0 2303 0 
L 628 0 
L 628 4666 
z
" transform="scale(0.015625)"/>
        <path id="DejaVuSans-48" d="M 3597 1894 
L 3597 1613 
L 953 1613 
Q 991 1019 1311 708 
Q 1631 397 2203 397 
Q 2534 397 2845 478 
Q 3156 559 3463 722 
L 3463 178 
Q 3153 47 2828 -22 
Q 2503 -91 2169 -91 
Q 1331 -91 842 396 
Q 353 884 353 1716 
Q 353 2575 817 3079 
Q 1281 3584 2069 3584 
Q 2775 3584 3186 3129 
Q 3597 2675 3597 1894 
z
M 3022 2063 
Q 3016 2534 2758 2815 
Q 2500 3097 2075 3097 
Q 1594 3097 1305 2825 
Q 1016 2553 972 2059 
L 3022 2063 
z
" transform="scale(0.015625)"/>
       </defs>
       <use xlink:href="#DejaVuSans-25" transform="translate(0 0.859375)"/>
       <use xlink:href="#DejaVuSans-48" transform="translate(68.603516 0.859375)"/>
       <use xlink:href="#DejaVuSans-2b" transform="translate(130.126953 0.859375)"/>
       <use xlink:href="#DejaVuSans-15" transform="translate(206.279297 -14.140576) scale(0.7)"/>
       <use xlink:href="#Helvetica-Bold-3" transform="translate(253.549805 0.859375)"/>
       <use xlink:href="#Helvetica-Bold-b" transform="translate(281.333008 0.859375)"/>
       <use xlink:href="#Helvetica-Bold-19" transform="translate(314.633789 0.859375)"/>
       <use xlink:href="#Helvetica-Bold-54" transform="translate(370.249023 0.859375)"/>
       <use xlink:href="#Helvetica-Bold-c" transform="translate(431.333008 0.859375)"/>
      </g>
     </g>
    </g>
    <g id="xtick_4">
     <g id="line2d_7">
      <path d="M 570.442459 304.23998 
L 570.442459 28.575 
" clip-path="url(#pc2021c9f99)" style="fill: none; stroke-dasharray: 2.96,1.28; stroke-dashoffset: 0; stroke: #e0e0e0; stroke-opacity: 0.7; stroke-width: 0.8"/>
     </g>
     <g id="line2d_8">
      <g>
       <use xlink:href="#m41398de975" x="570.442459" y="304.23998" style="stroke: #000000; stroke-width: 0.8"/>
      </g>
     </g>
     <g id="text_4">
      <!-- $H_4$ (8q) -->
      <g transform="translate(552.907459 319.11498) scale(0.105 -0.105)">
       <defs>
        <path id="DejaVuSans-17" d="M 2419 4116 
L 825 1625 
L 2419 1625 
L 2419 4116 
z
M 2253 4666 
L 3047 4666 
L 3047 1625 
L 3713 1625 
L 3713 1100 
L 3047 1100 
L 3047 0 
L 2419 0 
L 2419 1100 
L 313 1100 
L 313 1709 
L 2253 4666 
z
" transform="scale(0.015625)"/>
        <path id="Helvetica-Bold-1b" d="M 559 284 
Q 169 684 169 1256 
Q 169 1638 342 1947 
Q 516 2256 850 2413 
Q 522 2631 423 2886 
Q 325 3141 325 3363 
Q 325 3856 697 4204 
Q 1069 4553 1747 4553 
Q 2425 4553 2797 4204 
Q 3169 3856 3169 3363 
Q 3169 3141 3070 2886 
Q 2972 2631 2644 2444 
Q 2978 2256 3147 1947 
Q 3316 1638 3316 1256 
Q 3316 684 2892 282 
Q 2469 -119 1709 -119 
Q 950 -119 559 284 
z
M 1094 1316 
Q 1094 981 1267 797 
Q 1441 613 1747 613 
Q 2053 613 2226 797 
Q 2400 981 2400 1316 
Q 2400 1663 2223 1842 
Q 2047 2022 1747 2022 
Q 1447 2022 1270 1842 
Q 1094 1663 1094 1316 
z
M 1328 2859 
Q 1478 2703 1747 2703 
Q 2019 2703 2167 2859 
Q 2316 3016 2316 3263 
Q 2316 3531 2167 3682 
Q 2019 3834 1747 3834 
Q 1478 3834 1326 3682 
Q 1175 3531 1175 3263 
Q 1175 3016 1328 2859 
z
" transform="scale(0.015625)"/>
       </defs>
       <use xlink:href="#DejaVuSans-Oblique-2b" transform="translate(0 0.859375)"/>
       <use xlink:href="#DejaVuSans-17" transform="translate(75.195312 -14.140576) scale(0.7)"/>
       <use xlink:href="#Helvetica-Bold-3" transform="translate(122.46582 0.859375)"/>
       <use xlink:href="#Helvetica-Bold-b" transform="translate(150.249023 0.859375)"/>
       <use xlink:href="#Helvetica-Bold-1b" transform="translate(183.549805 0.859375)"/>
       <use xlink:href="#Helvetica-Bold-54" transform="translate(239.165039 0.859375)"/>
       <use xlink:href="#Helvetica-Bold-c" transform="translate(300.249023 0.859375)"/>
      </g>
     </g>
    </g>
   </g>
   <g id="matplotlib.axis_2">
    <g id="ytick_1">
     <g id="line2d_9">
      <path d="M 49.484102 199.4818 
L 595.25 199.4818 
" clip-path="url(#pc2021c9f99)" style="fill: none; stroke-dasharray: 2.96,1.28; stroke-dashoffset: 0; stroke: #e0e0e0; stroke-opacity: 0.7; stroke-width: 0.8"/>
     </g>
     <g id="line2d_10">
      <defs>
       <path id="mc91731bb24" d="M 0 0 
L -3.5 0 
" style="stroke: #000000; stroke-width: 0.8"/>
      </defs>
      <g>
       <use xlink:href="#mc91731bb24" x="49.484102" y="199.4818" style="stroke: #000000; stroke-width: 0.8"/>
      </g>
     </g>
     <g id="text_5">
      <!-- $\mathdefault{10^{-2}}$ -->
      <g transform="translate(22.009102 204.2593) scale(0.105 -0.105)">
       <defs>
        <path id="Helvetica-14" d="M 613 3169 
L 613 3600 
Q 1222 3659 1462 3798 
Q 1703 3938 1822 4456 
L 2266 4456 
L 2266 0 
L 1666 0 
L 1666 3169 
L 613 3169 
z
" transform="scale(0.015625)"/>
        <path id="Helvetica-13" d="M 1731 4475 
Q 2600 4475 2988 3759 
Q 3288 3206 3288 2244 
Q 3288 1331 3016 734 
Q 2622 -122 1728 -122 
Q 922 -122 528 578 
Q 200 1163 200 2147 
Q 200 2909 397 3456 
Q 766 4475 1731 4475 
z
M 1725 391 
Q 2163 391 2422 778 
Q 2681 1166 2681 2222 
Q 2681 2984 2493 3476 
Q 2306 3969 1766 3969 
Q 1269 3969 1039 3501 
Q 809 3034 809 2125 
Q 809 1441 956 1025 
Q 1181 391 1725 391 
z
" transform="scale(0.015625)"/>
        <path id="Helvetica-ef" d="M 3547 1894 
L 3547 1369 
L 288 1369 
L 288 1894 
L 3547 1894 
z
" transform="scale(0.015625)"/>
        <path id="Helvetica-15" d="M 200 0 
Q 231 578 439 1006 
Q 647 1434 1250 1784 
L 1850 2131 
Q 2253 2366 2416 2531 
Q 2672 2791 2672 3125 
Q 2672 3516 2437 3745 
Q 2203 3975 1813 3975 
Q 1234 3975 1013 3538 
Q 894 3303 881 2888 
L 309 2888 
Q 319 3472 525 3841 
Q 891 4491 1816 4491 
Q 2584 4491 2939 4075 
Q 3294 3659 3294 3150 
Q 3294 2613 2916 2231 
Q 2697 2009 2131 1694 
L 1703 1456 
Q 1397 1288 1222 1134 
Q 909 863 828 531 
L 3272 531 
L 3272 0 
L 200 0 
z
" transform="scale(0.015625)"/>
       </defs>
       <use xlink:href="#Helvetica-14" transform="translate(0 0.579688)"/>
       <use xlink:href="#Helvetica-13" transform="translate(55.615234 0.579688)"/>
       <use xlink:href="#Helvetica-ef" transform="translate(112.1875 41.879688) scale(0.7)"/>
       <use xlink:href="#Helvetica-15" transform="translate(153.066406 41.879688) scale(0.7)"/>
      </g>
     </g>
    </g>
    <g id="ytick_2">
     <g id="line2d_11">
      <path d="M 49.484102 32.188111 
L 595.25 32.188111 
" clip-path="url(#pc2021c9f99)" style="fill: none; stroke-dasharray: 2.96,1.28; stroke-dashoffset: 0; stroke: #e0e0e0; stroke-opacity: 0.7; stroke-width: 0.8"/>
     </g>
     <g id="line2d_12">
      <g>
       <use xlink:href="#mc91731bb24" x="49.484102" y="32.188111" style="stroke: #000000; stroke-width: 0.8"/>
      </g>
     </g>
     <g id="text_6">
      <!-- $\mathdefault{10^{-1}}$ -->
      <g transform="translate(22.009102 36.965611) scale(0.105 -0.105)">
       <use xlink:href="#Helvetica-14" transform="translate(0 0.9625)"/>
       <use xlink:href="#Helvetica-13" transform="translate(55.615234 0.9625)"/>
       <use xlink:href="#Helvetica-ef" transform="translate(112.1875 42.2625) scale(0.7)"/>
       <use xlink:href="#Helvetica-14" transform="translate(153.066406 42.2625) scale(0.7)"/>
      </g>
     </g>
    </g>
    <g id="ytick_3">
     <g id="line2d_13">
      <path d="M 49.484102 286.956115 
L 595.25 286.956115 
" clip-path="url(#pc2021c9f99)" style="fill: none; stroke-dasharray: 2.96,1.28; stroke-dashoffset: 0; stroke: #e0e0e0; stroke-opacity: 0.7; stroke-width: 0.8"/>
     </g>
     <g id="line2d_14">
      <defs>
       <path id="m3b7c843818" d="M 0 0 
L -2 0 
" style="stroke: #000000; stroke-width: 0.6"/>
      </defs>
      <g>
       <use xlink:href="#m3b7c843818" x="49.484102" y="286.956115" style="stroke: #000000; stroke-width: 0.6"/>
      </g>
     </g>
    </g>
    <g id="ytick_4">
     <g id="line2d_15">
      <path d="M 49.484102 266.054652 
L 595.25 266.054652 
" clip-path="url(#pc2021c9f99)" style="fill: none; stroke-dasharray: 2.96,1.28; stroke-dashoffset: 0; stroke: #e0e0e0; stroke-opacity: 0.7; stroke-width: 0.8"/>
     </g>
     <g id="line2d_16">
      <g>
       <use xlink:href="#m3b7c843818" x="49.484102" y="266.054652" style="stroke: #000000; stroke-width: 0.6"/>
      </g>
     </g>
    </g>
    <g id="ytick_5">
     <g id="line2d_17">
      <path d="M 49.484102 249.842219 
L 595.25 249.842219 
" clip-path="url(#pc2021c9f99)" style="fill: none; stroke-dasharray: 2.96,1.28; stroke-dashoffset: 0; stroke: #e0e0e0; stroke-opacity: 0.7; stroke-width: 0.8"/>
     </g>
     <g id="line2d_18">
      <g>
       <use xlink:href="#m3b7c843818" x="49.484102" y="249.842219" style="stroke: #000000; stroke-width: 0.6"/>
      </g>
     </g>
    </g>
    <g id="ytick_6">
     <g id="line2d_19">
      <path d="M 49.484102 236.595696 
L 595.25 236.595696 
" clip-path="url(#pc2021c9f99)" style="fill: none; stroke-dasharray: 2.96,1.28; stroke-dashoffset: 0; stroke: #e0e0e0; stroke-opacity: 0.7; stroke-width: 0.8"/>
     </g>
     <g id="line2d_20">
      <g>
       <use xlink:href="#m3b7c843818" x="49.484102" y="236.595696" style="stroke: #000000; stroke-width: 0.6"/>
      </g>
     </g>
    </g>
    <g id="ytick_7">
     <g id="line2d_21">
      <path d="M 49.484102 225.395921 
L 595.25 225.395921 
" clip-path="url(#pc2021c9f99)" style="fill: none; stroke-dasharray: 2.96,1.28; stroke-dashoffset: 0; stroke: #e0e0e0; stroke-opacity: 0.7; stroke-width: 0.8"/>
     </g>
     <g id="line2d_22">
      <g>
       <use xlink:href="#m3b7c843818" x="49.484102" y="225.395921" style="stroke: #000000; stroke-width: 0.6"/>
      </g>
     </g>
    </g>
    <g id="ytick_8">
     <g id="line2d_23">
      <path d="M 49.484102 215.694234 
L 595.25 215.694234 
" clip-path="url(#pc2021c9f99)" style="fill: none; stroke-dasharray: 2.96,1.28; stroke-dashoffset: 0; stroke: #e0e0e0; stroke-opacity: 0.7; stroke-width: 0.8"/>
     </g>
     <g id="line2d_24">
      <g>
       <use xlink:href="#m3b7c843818" x="49.484102" y="215.694234" style="stroke: #000000; stroke-width: 0.6"/>
      </g>
     </g>
    </g>
    <g id="ytick_9">
     <g id="line2d_25">
      <path d="M 49.484102 207.13674 
L 595.25 207.13674 
" clip-path="url(#pc2021c9f99)" style="fill: none; stroke-dasharray: 2.96,1.28; stroke-dashoffset: 0; stroke: #e0e0e0; stroke-opacity: 0.7; stroke-width: 0.8"/>
     </g>
     <g id="line2d_26">
      <g>
       <use xlink:href="#m3b7c843818" x="49.484102" y="207.13674" style="stroke: #000000; stroke-width: 0.6"/>
      </g>
     </g>
    </g>
    <g id="ytick_10">
     <g id="line2d_27">
      <path d="M 49.484102 149.121382 
L 595.25 149.121382 
" clip-path="url(#pc2021c9f99)" style="fill: none; stroke-dasharray: 2.96,1.28; stroke-dashoffset: 0; stroke: #e0e0e0; stroke-opacity: 0.7; stroke-width: 0.8"/>
     </g>
     <g id="line2d_28">
      <g>
       <use xlink:href="#m3b7c843818" x="49.484102" y="149.121382" style="stroke: #000000; stroke-width: 0.6"/>
      </g>
     </g>
    </g>
    <g id="ytick_11">
     <g id="line2d_29">
      <path d="M 49.484102 119.662425 
L 595.25 119.662425 
" clip-path="url(#pc2021c9f99)" style="fill: none; stroke-dasharray: 2.96,1.28; stroke-dashoffset: 0; stroke: #e0e0e0; stroke-opacity: 0.7; stroke-width: 0.8"/>
     </g>
     <g id="line2d_30">
      <g>
       <use xlink:href="#m3b7c843818" x="49.484102" y="119.662425" style="stroke: #000000; stroke-width: 0.6"/>
      </g>
     </g>
    </g>
    <g id="ytick_12">
     <g id="line2d_31">
      <path d="M 49.484102 98.760963 
L 595.25 98.760963 
" clip-path="url(#pc2021c9f99)" style="fill: none; stroke-dasharray: 2.96,1.28; stroke-dashoffset: 0; stroke: #e0e0e0; stroke-opacity: 0.7; stroke-width: 0.8"/>
     </g>
     <g id="line2d_32">
      <g>
       <use xlink:href="#m3b7c843818" x="49.484102" y="98.760963" style="stroke: #000000; stroke-width: 0.6"/>
      </g>
     </g>
    </g>
    <g id="ytick_13">
     <g id="line2d_33">
      <path d="M 49.484102 82.54853 
L 595.25 82.54853 
" clip-path="url(#pc2021c9f99)" style="fill: none; stroke-dasharray: 2.96,1.28; stroke-dashoffset: 0; stroke: #e0e0e0; stroke-opacity: 0.7; stroke-width: 0.8"/>
     </g>
     <g id="line2d_34">
      <g>
       <use xlink:href="#m3b7c843818" x="49.484102" y="82.54853" style="stroke: #000000; stroke-width: 0.6"/>
      </g>
     </g>
    </g>
    <g id="ytick_14">
     <g id="line2d_35">
      <path d="M 49.484102 69.302007 
L 595.25 69.302007 
" clip-path="url(#pc2021c9f99)" style="fill: none; stroke-dasharray: 2.96,1.28; stroke-dashoffset: 0; stroke: #e0e0e0; stroke-opacity: 0.7; stroke-width: 0.8"/>
     </g>
     <g id="line2d_36">
      <g>
       <use xlink:href="#m3b7c843818" x="49.484102" y="69.302007" style="stroke: #000000; stroke-width: 0.6"/>
      </g>
     </g>
    </g>
    <g id="ytick_15">
     <g id="line2d_37">
      <path d="M 49.484102 58.102231 
L 595.25 58.102231 
" clip-path="url(#pc2021c9f99)" style="fill: none; stroke-dasharray: 2.96,1.28; stroke-dashoffset: 0; stroke: #e0e0e0; stroke-opacity: 0.7; stroke-width: 0.8"/>
     </g>
     <g id="line2d_38">
      <g>
       <use xlink:href="#m3b7c843818" x="49.484102" y="58.102231" style="stroke: #000000; stroke-width: 0.6"/>
      </g>
     </g>
    </g>
    <g id="ytick_16">
     <g id="line2d_39">
      <path d="M 49.484102 48.400545 
L 595.25 48.400545 
" clip-path="url(#pc2021c9f99)" style="fill: none; stroke-dasharray: 2.96,1.28; stroke-dashoffset: 0; stroke: #e0e0e0; stroke-opacity: 0.7; stroke-width: 0.8"/>
     </g>
     <g id="line2d_40">
      <g>
       <use xlink:href="#m3b7c843818" x="49.484102" y="48.400545" style="stroke: #000000; stroke-width: 0.6"/>
      </g>
     </g>
    </g>
    <g id="ytick_17">
     <g id="line2d_41">
      <path d="M 49.484102 39.84305 
L 595.25 39.84305 
" clip-path="url(#pc2021c9f99)" style="fill: none; stroke-dasharray: 2.96,1.28; stroke-dashoffset: 0; stroke: #e0e0e0; stroke-opacity: 0.7; stroke-width: 0.8"/>
     </g>
     <g id="line2d_42">
      <g>
       <use xlink:href="#m3b7c843818" x="49.484102" y="39.84305" style="stroke: #000000; stroke-width: 0.6"/>
      </g>
     </g>
    </g>
    <g id="text_7">
     <!-- Gradient Variance $\mathrm{Var}[\partial E / \partial \theta]$ -->
     <g transform="translate(16.055 246.10249) rotate(-90) scale(0.115 -0.115)">
      <defs>
       <path id="Helvetica-Bold-2a" d="M 3313 113 
Q 2931 -122 2375 -122 
Q 1459 -122 875 513 
Q 266 1150 266 2256 
Q 266 3375 881 4050 
Q 1497 4725 2509 4725 
Q 3388 4725 3920 4279 
Q 4453 3834 4531 3169 
L 3584 3169 
Q 3475 3641 3050 3828 
Q 2813 3931 2522 3931 
Q 1966 3931 1608 3511 
Q 1250 3091 1250 2247 
Q 1250 1397 1637 1044 
Q 2025 691 2519 691 
Q 3003 691 3312 970 
Q 3622 1250 3694 1703 
L 2628 1703 
L 2628 2472 
L 4547 2472 
L 4547 0 
L 3909 0 
L 3813 575 
Q 3534 247 3313 113 
z
" transform="scale(0.015625)"/>
       <path id="Helvetica-Bold-55" d="M 2128 2584 
Q 1591 2584 1406 2234 
Q 1303 2038 1303 1628 
L 1303 0 
L 406 0 
L 406 3406 
L 1256 3406 
L 1256 2813 
Q 1463 3153 1616 3278 
Q 1866 3488 2266 3488 
Q 2291 3488 2308 3486 
Q 2325 3484 2384 3481 
L 2384 2569 
Q 2300 2578 2234 2581 
Q 2169 2584 2128 2584 
z
" transform="scale(0.015625)"/>
       <path id="Helvetica-Bold-44" d="M 544 3038 
Q 897 3488 1756 3488 
Q 2316 3488 2750 3266 
Q 3184 3044 3184 2428 
L 3184 866 
Q 3184 703 3191 472 
Q 3200 297 3244 234 
Q 3288 172 3375 131 
L 3375 0 
L 2406 0 
Q 2366 103 2350 193 
Q 2334 284 2325 400 
Q 2141 200 1900 59 
Q 1613 -106 1250 -106 
Q 788 -106 486 158 
Q 184 422 184 906 
Q 184 1534 669 1816 
Q 934 1969 1450 2034 
L 1753 2072 
Q 2000 2103 2106 2150 
Q 2297 2231 2297 2403 
Q 2297 2613 2151 2692 
Q 2006 2772 1725 2772 
Q 1409 2772 1278 2616 
Q 1184 2500 1153 2303 
L 294 2303 
Q 322 2750 544 3038 
z
M 1206 644 
Q 1331 541 1513 541 
Q 1800 541 2042 709 
Q 2284 878 2294 1325 
L 2294 1656 
Q 2209 1603 2123 1570 
Q 2038 1538 1888 1509 
L 1688 1472 
Q 1406 1422 1284 1350 
Q 1078 1228 1078 972 
Q 1078 744 1206 644 
z
" transform="scale(0.015625)"/>
       <path id="Helvetica-Bold-47" d="M 3516 4600 
L 3516 0 
L 2650 0 
L 2650 472 
Q 2459 169 2215 31 
Q 1972 -106 1609 -106 
Q 1013 -106 605 376 
Q 197 859 197 1616 
Q 197 2488 598 2988 
Q 1000 3488 1672 3488 
Q 1981 3488 2222 3352 
Q 2463 3216 2613 2975 
L 2613 4600 
L 3516 4600 
z
M 1116 1681 
Q 1116 1209 1303 928 
Q 1488 644 1866 644 
Q 2244 644 2441 925 
Q 2638 1206 2638 1653 
Q 2638 2278 2322 2547 
Q 2128 2709 1872 2709 
Q 1481 2709 1298 2414 
Q 1116 2119 1116 1681 
z
" transform="scale(0.015625)"/>
       <path id="Helvetica-Bold-4c" d="M 1331 3406 
L 1331 0 
L 428 0 
L 428 3406 
L 1331 3406 
z
M 1331 4634 
L 1331 3813 
L 428 3813 
L 428 4634 
L 1331 4634 
z
" transform="scale(0.015625)"/>
       <path id="Helvetica-Bold-48" d="M 3331 1000 
Q 3297 697 3016 384 
Q 2578 -113 1791 -113 
Q 1141 -113 644 306 
Q 147 725 147 1669 
Q 147 2553 595 3025 
Q 1044 3497 1759 3497 
Q 2184 3497 2525 3337 
Q 2866 3178 3088 2834 
Q 3288 2531 3347 2131 
Q 3381 1897 3375 1456 
L 1044 1456 
Q 1063 944 1366 738 
Q 1550 609 1809 609 
Q 2084 609 2256 766 
Q 2350 850 2422 1000 
L 3331 1000 
z
M 2450 2044 
Q 2428 2397 2236 2580 
Q 2044 2763 1759 2763 
Q 1450 2763 1279 2569 
Q 1109 2375 1066 2044 
L 2450 2044 
z
" transform="scale(0.015625)"/>
       <path id="Helvetica-Bold-51" d="M 2019 2747 
Q 1566 2747 1397 2363 
Q 1309 2159 1309 1844 
L 1309 0 
L 422 0 
L 422 3400 
L 1281 3400 
L 1281 2903 
Q 1453 3166 1606 3281 
Q 1881 3488 2303 3488 
Q 2831 3488 3167 3211 
Q 3503 2934 3503 2294 
L 3503 0 
L 2591 0 
L 2591 2072 
Q 2591 2341 2519 2484 
Q 2388 2747 2019 2747 
z
" transform="scale(0.015625)"/>
       <path id="Helvetica-Bold-57" d="M 1975 634 
L 1975 -31 
L 1553 -47 
Q 922 -69 691 172 
Q 541 325 541 644 
L 541 2741 
L 66 2741 
L 66 3375 
L 541 3375 
L 541 4325 
L 1422 4325 
L 1422 3375 
L 1975 3375 
L 1975 2741 
L 1422 2741 
L 1422 941 
Q 1422 731 1475 679 
Q 1528 628 1800 628 
Q 1841 628 1886 629 
Q 1931 631 1975 634 
z
" transform="scale(0.015625)"/>
       <path id="Helvetica-Bold-39" d="M 147 4606 
L 1175 4606 
L 2175 1109 
L 3184 4606 
L 4184 4606 
L 2613 0 
L 1703 0 
L 147 4606 
z
" transform="scale(0.015625)"/>
       <path id="Helvetica-Bold-46" d="M 3363 2184 
L 2450 2184 
Q 2425 2375 2322 2528 
Q 2172 2734 1856 2734 
Q 1406 2734 1241 2288 
Q 1153 2050 1153 1656 
Q 1153 1281 1241 1053 
Q 1400 628 1841 628 
Q 2153 628 2284 797 
Q 2416 966 2444 1234 
L 3353 1234 
Q 3322 828 3059 466 
Q 2641 -119 1819 -119 
Q 997 -119 609 368 
Q 222 856 222 1634 
Q 222 2513 650 3000 
Q 1078 3488 1831 3488 
Q 2472 3488 2880 3200 
Q 3288 2913 3363 2184 
z
" transform="scale(0.015625)"/>
       <path id="DejaVuSans-39" d="M 1831 0 
L 50 4666 
L 709 4666 
L 2188 738 
L 3669 4666 
L 4325 4666 
L 2547 0 
L 1831 0 
z
" transform="scale(0.015625)"/>
       <path id="DejaVuSans-44" d="M 2194 1759 
Q 1497 1759 1228 1600 
Q 959 1441 959 1056 
Q 959 750 1161 570 
Q 1363 391 1709 391 
Q 2188 391 2477 730 
Q 2766 1069 2766 1631 
L 2766 1759 
L 2194 1759 
z
M 3341 1997 
L 3341 0 
L 2766 0 
L 2766 531 
Q 2569 213 2275 61 
Q 1981 -91 1556 -91 
Q 1019 -91 701 211 
Q 384 513 384 1019 
Q 384 1609 779 1909 
Q 1175 2209 1959 2209 
L 2766 2209 
L 2766 2266 
Q 2766 2663 2505 2880 
Q 2244 3097 1772 3097 
Q 1472 3097 1187 3025 
Q 903 2953 641 2809 
L 641 3341 
Q 956 3463 1253 3523 
Q 1550 3584 1831 3584 
Q 2591 3584 2966 3190 
Q 3341 2797 3341 1997 
z
" transform="scale(0.015625)"/>
       <path id="DejaVuSans-55" d="M 2631 2963 
Q 2534 3019 2420 3045 
Q 2306 3072 2169 3072 
Q 1681 3072 1420 2755 
Q 1159 2438 1159 1844 
L 1159 0 
L 581 0 
L 581 3500 
L 1159 3500 
L 1159 2956 
Q 1341 3275 1631 3429 
Q 1922 3584 2338 3584 
Q 2397 3584 2469 3576 
Q 2541 3569 2628 3553 
L 2631 2963 
z
" transform="scale(0.015625)"/>
       <path id="DejaVuSans-3e" d="M 550 4863 
L 1875 4863 
L 1875 4416 
L 1125 4416 
L 1125 -397 
L 1875 -397 
L 1875 -844 
L 550 -844 
L 550 4863 
z
" transform="scale(0.015625)"/>
       <path id="DejaVuSans-c8c" d="M 1366 -91 
Q 925 -91 638 175 
Q 297 491 297 1063 
Q 297 1656 597 2119 
Q 906 2594 1463 2594 
Q 1828 2594 2116 2366 
Q 2284 2231 2400 2006 
Q 2441 2259 2441 2547 
Q 2441 2969 2341 3213 
Q 2119 3753 1531 3753 
Q 1309 3753 966 3616 
L 966 4141 
Q 1328 4238 1653 4238 
Q 2491 4238 2847 3469 
Q 3013 3106 3013 2566 
Q 3013 2213 2934 1803 
Q 2738 778 2228 291 
Q 1828 -91 1366 -91 
z
M 831 969 
Q 831 656 969 488 
Q 1116 309 1341 309 
Q 1541 309 1700 450 
Q 1925 644 2091 959 
Q 2228 1219 2297 1497 
Q 2019 2169 1538 2169 
Q 1125 2169 944 1625 
Q 831 1288 831 969 
z
" transform="scale(0.015625)"/>
       <path id="DejaVuSans-Oblique-28" d="M 1081 4666 
L 4031 4666 
L 3928 4134 
L 1606 4134 
L 1338 2753 
L 3566 2753 
L 3463 2222 
L 1234 2222 
L 909 531 
L 3284 531 
L 3181 0 
L 172 0 
L 1081 4666 
z
" transform="scale(0.015625)"/>
       <path id="DejaVuSans-12" d="M 1625 4666 
L 2156 4666 
L 531 -594 
L 0 -594 
L 1625 4666 
z
" transform="scale(0.015625)"/>
       <path id="DejaVuSans-Oblique-34c" d="M 2913 2219 
L 925 2219 
Q 791 1284 928 888 
Q 1100 400 1566 400 
Q 2034 400 2391 891 
Q 2703 1322 2913 2219 
z
M 3009 2750 
Q 3094 3638 2984 3950 
Q 2813 4444 2353 4444 
Q 1875 4444 1525 3956 
Q 1250 3563 1034 2750 
L 3009 2750 
z
M 2444 4913 
Q 3194 4913 3494 4250 
Q 3794 3591 3566 2422 
Q 3341 1256 2781 594 
Q 2225 -72 1475 -72 
Q 722 -72 425 594 
Q 128 1256 353 2422 
Q 581 3591 1134 4250 
Q 1691 4913 2444 4913 
z
" transform="scale(0.015625)"/>
       <path id="DejaVuSans-40" d="M 1947 4863 
L 1947 -844 
L 622 -844 
L 622 -397 
L 1369 -397 
L 1369 4416 
L 622 4416 
L 622 4863 
L 1947 4863 
z
" transform="scale(0.015625)"/>
      </defs>
      <use xlink:href="#Helvetica-Bold-2a" transform="translate(0 0.234375)"/>
      <use xlink:href="#Helvetica-Bold-55" transform="translate(77.783203 0.234375)"/>
      <use xlink:href="#Helvetica-Bold-44" transform="translate(116.699219 0.234375)"/>
      <use xlink:href="#Helvetica-Bold-47" transform="translate(172.314453 0.234375)"/>
      <use xlink:href="#Helvetica-Bold-4c" transform="translate(233.398438 0.234375)"/>
      <use xlink:href="#Helvetica-Bold-48" transform="translate(261.181641 0.234375)"/>
      <use xlink:href="#Helvetica-Bold-51" transform="translate(316.796875 0.234375)"/>
      <use xlink:href="#Helvetica-Bold-57" transform="translate(377.880859 0.234375)"/>
      <use xlink:href="#Helvetica-Bold-3" transform="translate(411.181641 0.234375)"/>
      <use xlink:href="#Helvetica-Bold-39" transform="translate(438.964844 0.234375)"/>
      <use xlink:href="#Helvetica-Bold-44" transform="translate(505.664062 0.234375)"/>
      <use xlink:href="#Helvetica-Bold-55" transform="translate(561.279297 0.234375)"/>
      <use xlink:href="#Helvetica-Bold-4c" transform="translate(600.195312 0.234375)"/>
      <use xlink:href="#Helvetica-Bold-44" transform="translate(627.978516 0.234375)"/>
      <use xlink:href="#Helvetica-Bold-51" transform="translate(683.59375 0.234375)"/>
      <use xlink:href="#Helvetica-Bold-46" transform="translate(744.677734 0.234375)"/>
      <use xlink:href="#Helvetica-Bold-48" transform="translate(800.292969 0.234375)"/>
      <use xlink:href="#Helvetica-Bold-3" transform="translate(855.908203 0.234375)"/>
      <use xlink:href="#DejaVuSans-39" transform="translate(883.691406 0.234375)"/>
      <use xlink:href="#DejaVuSans-44" transform="translate(944.099609 0.234375)"/>
      <use xlink:href="#DejaVuSans-55" transform="translate(1005.378906 0.234375)"/>
      <use xlink:href="#DejaVuSans-3e" transform="translate(1046.492188 0.234375)"/>
      <use xlink:href="#DejaVuSans-c8c" transform="translate(1085.505859 0.234375)"/>
      <use xlink:href="#DejaVuSans-Oblique-28" transform="translate(1137.214844 0.234375)"/>
      <use xlink:href="#DejaVuSans-12" transform="translate(1200.398438 0.234375)"/>
      <use xlink:href="#DejaVuSans-c8c" transform="translate(1234.089844 0.234375)"/>
      <use xlink:href="#DejaVuSans-Oblique-34c" transform="translate(1285.798828 0.234375)"/>
      <use xlink:href="#DejaVuSans-40" transform="translate(1346.980469 0.234375)"/>
     </g>
    </g>
   </g>
   <g id="line2d_43">
    <path d="M 74.291642 96.525257 
L 239.675248 183.794373 
L 405.058854 200.579877 
L 570.442459 291.709754 
" clip-path="url(#pc2021c9f99)" style="fill: none; stroke: #7570b3; stroke-width: 2.2; stroke-linecap: square"/>
    <defs>
     <path id="m53cb088ebd" d="M 0 4 
C 1.060812 4 2.078319 3.578535 2.828427 2.828427 
C 3.578535 2.078319 4 1.060812 4 0 
C 4 -1.060812 3.578535 -2.078319 2.828427 -2.828427 
C 2.078319 -3.578535 1.060812 -4 0 -4 
C -1.060812 -4 -2.078319 -3.578535 -2.828427 -2.828427 
C -3.578535 -2.078319 -4 -1.060812 -4 0 
C -4 1.060812 -3.578535 2.078319 -2.828427 2.828427 
C -2.078319 3.578535 -1.060812 4 0 4 
z
" style="stroke: #7570b3"/>
    </defs>
    <g clip-path="url(#pc2021c9f99)">
     <use xlink:href="#m53cb088ebd" x="74.291642" y="96.525257" style="fill: #7570b3; stroke: #7570b3"/>
     <use xlink:href="#m53cb088ebd" x="239.675248" y="183.794373" style="fill: #7570b3; stroke: #7570b3"/>
     <use xlink:href="#m53cb088ebd" x="405.058854" y="200.579877" style="fill: #7570b3; stroke: #7570b3"/>
     <use xlink:href="#m53cb088ebd" x="570.442459" y="291.709754" style="fill: #7570b3; stroke: #7570b3"/>
    </g>
   </g>
   <g id="line2d_44">
    <path d="M 74.291642 46.51796 
L 239.675248 85.212341 
L 405.058854 95.043345 
L 570.442459 101.537915 
" clip-path="url(#pc2021c9f99)" style="fill: none; stroke-dasharray: 8.14,3.52; stroke-dashoffset: 0; stroke: #1b9e77; stroke-width: 2.2"/>
    <defs>
     <path id="m1bd8966aa9" d="M -4 4 
L 4 4 
L 4 -4 
L -4 -4 
z
" style="stroke: #1b9e77; stroke-linejoin: miter"/>
    </defs>
    <g clip-path="url(#pc2021c9f99)">
     <use xlink:href="#m1bd8966aa9" x="74.291642" y="46.51796" style="fill: #1b9e77; stroke: #1b9e77; stroke-linejoin: miter"/>
     <use xlink:href="#m1bd8966aa9" x="239.675248" y="85.212341" style="fill: #1b9e77; stroke: #1b9e77; stroke-linejoin: miter"/>
     <use xlink:href="#m1bd8966aa9" x="405.058854" y="95.043345" style="fill: #1b9e77; stroke: #1b9e77; stroke-linejoin: miter"/>
     <use xlink:href="#m1bd8966aa9" x="570.442459" y="101.537915" style="fill: #1b9e77; stroke: #1b9e77; stroke-linejoin: miter"/>
    </g>
   </g>
   <g id="line2d_45">
    <path d="M 74.291642 41.105226 
L 239.675248 80.939024 
L 405.058854 145.403764 
L 570.442459 251.014095 
" clip-path="url(#pc2021c9f99)" style="fill: none; stroke: #2b5c8f; stroke-width: 2.4; stroke-linecap: square"/>
    <defs>
     <path id="mc6685682d6" d="M 0 -4.5 
L -4.5 4.5 
L 4.5 4.5 
z
" style="stroke: #2b5c8f; stroke-linejoin: miter"/>
    </defs>
    <g clip-path="url(#pc2021c9f99)">
     <use xlink:href="#mc6685682d6" x="74.291642" y="41.105226" style="fill: #2b5c8f; stroke: #2b5c8f; stroke-linejoin: miter"/>
     <use xlink:href="#mc6685682d6" x="239.675248" y="80.939024" style="fill: #2b5c8f; stroke: #2b5c8f; stroke-linejoin: miter"/>
     <use xlink:href="#mc6685682d6" x="405.058854" y="145.403764" style="fill: #2b5c8f; stroke: #2b5c8f; stroke-linejoin: miter"/>
     <use xlink:href="#mc6685682d6" x="570.442459" y="251.014095" style="fill: #2b5c8f; stroke: #2b5c8f; stroke-linejoin: miter"/>
    </g>
   </g>
   <g id="patch_3">
    <path d="M 49.484102 304.23998 
L 49.484102 28.575 
" style="fill: none; stroke: #2d3748; stroke-width: 1.2; stroke-linejoin: miter; stroke-linecap: square"/>
   </g>
   <g id="patch_4">
    <path d="M 595.25 304.23998 
L 595.25 28.575 
" style="fill: none; stroke: #2d3748; stroke-width: 1.2; stroke-linejoin: miter; stroke-linecap: square"/>
   </g>
   <g id="patch_5">
    <path d="M 49.484102 304.23998 
L 595.25 304.23998 
" style="fill: none; stroke: #2d3748; stroke-width: 1.2; stroke-linejoin: miter; stroke-linecap: square"/>
   </g>
   <g id="patch_6">
    <path d="M 49.484102 28.575 
L 595.25 28.575 
" style="fill: none; stroke: #2d3748; stroke-width: 1.2; stroke-linejoin: miter; stroke-linecap: square"/>
   </g>
   <g id="patch_7">
    <path d="M 477.992758 334.345244 
Q 523.474185 293.349767 567.709918 253.477119 
" style="fill: none; stroke: #2b5c8f; stroke-width: 1.5; stroke-linecap: round"/>
    <path d="M 563.830731 254.550391 
L 567.709918 253.477119 
L 566.241024 257.224431 
" style="fill: none; stroke: #2b5c8f; stroke-width: 1.5; stroke-linecap: round"/>
   </g>
   <g id="text_8">
    <!-- Transformer decays -->
    <g style="fill: #2b5c8f" transform="translate(421.597214 344.573088) scale(0.09 -0.09)">
     <defs>
      <path id="Helvetica-Bold-37" d="M 3834 4606 
L 3834 3791 
L 2456 3791 
L 2456 0 
L 1488 0 
L 1488 3791 
L 103 3791 
L 103 4606 
L 3834 4606 
z
" transform="scale(0.015625)"/>
      <path id="Helvetica-Bold-56" d="M 2763 3250 
Q 3163 2994 3222 2369 
L 2331 2369 
Q 2313 2541 2234 2641 
Q 2088 2822 1734 2822 
Q 1444 2822 1320 2731 
Q 1197 2641 1197 2519 
Q 1197 2366 1328 2297 
Q 1459 2225 2256 2050 
Q 2788 1925 3053 1672 
Q 3316 1416 3316 1031 
Q 3316 525 2939 204 
Q 2563 -116 1775 -116 
Q 972 -116 589 223 
Q 206 563 206 1088 
L 1109 1088 
Q 1138 850 1231 750 
Q 1397 572 1844 572 
Q 2106 572 2261 650 
Q 2416 728 2416 884 
Q 2416 1034 2291 1113 
Q 2166 1191 1363 1381 
Q 784 1525 547 1741 
Q 309 1953 309 2353 
Q 309 2825 679 3164 
Q 1050 3503 1722 3503 
Q 2359 3503 2763 3250 
z
" transform="scale(0.015625)"/>
      <path id="Helvetica-Bold-49" d="M 2013 4634 
L 2013 3909 
Q 1938 3919 1761 3923 
Q 1584 3928 1517 3845 
Q 1450 3763 1450 3663 
L 1450 3375 
L 2034 3375 
L 2034 2747 
L 1450 2747 
L 1450 0 
L 563 0 
L 563 2747 
L 66 2747 
L 66 3375 
L 553 3375 
L 553 3594 
Q 553 4141 738 4347 
Q 931 4653 1672 4653 
Q 1756 4653 1825 4648 
Q 1894 4644 2013 4634 
z
" transform="scale(0.015625)"/>
      <path id="Helvetica-Bold-52" d="M 3256 2975 
Q 3688 2434 3688 1697 
Q 3688 947 3256 414 
Q 2825 -119 1947 -119 
Q 1069 -119 637 414 
Q 206 947 206 1697 
Q 206 2434 637 2975 
Q 1069 3516 1947 3516 
Q 2825 3516 3256 2975 
z
M 1944 2763 
Q 1553 2763 1342 2486 
Q 1131 2209 1131 1697 
Q 1131 1184 1342 906 
Q 1553 628 1944 628 
Q 2334 628 2543 906 
Q 2753 1184 2753 1697 
Q 2753 2209 2543 2486 
Q 2334 2763 1944 2763 
z
" transform="scale(0.015625)"/>
      <path id="Helvetica-Bold-50" d="M 2328 2469 
Q 2216 2716 1888 2716 
Q 1506 2716 1375 2469 
Q 1303 2328 1303 2050 
L 1303 0 
L 400 0 
L 400 3400 
L 1266 3400 
L 1266 2903 
Q 1431 3169 1578 3281 
Q 1838 3481 2250 3481 
Q 2641 3481 2881 3309 
Q 3075 3150 3175 2900 
Q 3350 3200 3609 3341 
Q 3884 3481 4222 3481 
Q 4447 3481 4665 3393 
Q 4884 3306 5063 3088 
Q 5206 2909 5256 2650 
Q 5288 2478 5288 2147 
L 5281 0 
L 4369 0 
L 4369 2169 
Q 4369 2363 4306 2488 
Q 4188 2725 3869 2725 
Q 3500 2725 3359 2419 
Q 3288 2256 3288 2028 
L 3288 0 
L 2391 0 
L 2391 2028 
Q 2391 2331 2328 2469 
z
" transform="scale(0.015625)"/>
      <path id="Helvetica-Bold-5c" d="M 1800 894 
L 2503 3406 
L 3450 3406 
L 2281 56 
Q 1944 -913 1747 -1145 
Q 1550 -1378 959 -1378 
Q 841 -1378 769 -1376 
Q 697 -1375 553 -1366 
L 553 -653 
L 666 -659 
Q 797 -666 915 -650 
Q 1034 -634 1116 -578 
Q 1194 -525 1261 -356 
Q 1328 -188 1316 -150 
L 66 3406 
L 1056 3406 
L 1800 894 
z
" transform="scale(0.015625)"/>
     </defs>
     <use xlink:href="#Helvetica-Bold-37"/>
     <use xlink:href="#Helvetica-Bold-55" transform="translate(55.609375 0)"/>
     <use xlink:href="#Helvetica-Bold-44" transform="translate(94.53125 0)"/>
     <use xlink:href="#Helvetica-Bold-51" transform="translate(150.140625 0)"/>
     <use xlink:href="#Helvetica-Bold-56" transform="translate(211.21875 0)"/>
     <use xlink:href="#Helvetica-Bold-49" transform="translate(266.828125 0)"/>
     <use xlink:href="#Helvetica-Bold-52" transform="translate(300.125 0)"/>
     <use xlink:href="#Helvetica-Bold-55" transform="translate(361.203125 0)"/>
     <use xlink:href="#Helvetica-Bold-50" transform="translate(400.125 0)"/>
     <use xlink:href="#Helvetica-Bold-48" transform="translate(489.046875 0)"/>
     <use xlink:href="#Helvetica-Bold-55" transform="translate(544.65625 0)"/>
     <use xlink:href="#Helvetica-Bold-3" transform="translate(583.578125 0)"/>
     <use xlink:href="#Helvetica-Bold-47" transform="translate(611.359375 0)"/>
     <use xlink:href="#Helvetica-Bold-48" transform="translate(672.4375 0)"/>
     <use xlink:href="#Helvetica-Bold-46" transform="translate(728.046875 0)"/>
     <use xlink:href="#Helvetica-Bold-44" transform="translate(783.65625 0)"/>
     <use xlink:href="#Helvetica-Bold-5c" transform="translate(839.265625 0)"/>
     <use xlink:href="#Helvetica-Bold-56" transform="translate(894.875 0)"/>
    </g>
    <!-- to plateau at 8q -->
    <g style="fill: #2b5c8f" transform="translate(421.597214 353.528967) scale(0.09 -0.09)">
     <defs>
      <path id="Helvetica-Bold-53" d="M 3269 3041 
Q 3681 2600 3681 1747 
Q 3681 847 3276 375 
Q 2872 -97 2234 -97 
Q 1828 -97 1559 106 
Q 1413 219 1272 434 
L 1272 -1341 
L 391 -1341 
L 391 3406 
L 1244 3406 
L 1244 2903 
Q 1388 3125 1550 3253 
Q 1847 3481 2256 3481 
Q 2853 3481 3269 3041 
z
M 2763 1703 
Q 2763 2097 2583 2400 
Q 2403 2703 2000 2703 
Q 1516 2703 1334 2244 
Q 1241 2000 1241 1625 
Q 1241 1031 1556 791 
Q 1744 650 2000 650 
Q 2372 650 2567 937 
Q 2763 1225 2763 1703 
z
" transform="scale(0.015625)"/>
      <path id="Helvetica-Bold-4f" d="M 434 4606 
L 1325 4606 
L 1325 0 
L 434 0 
L 434 4606 
z
" transform="scale(0.015625)"/>
      <path id="Helvetica-Bold-58" d="M 2600 481 
Q 2588 466 2538 387 
Q 2488 309 2419 250 
Q 2209 63 2014 -6 
Q 1819 -75 1556 -75 
Q 800 -75 538 469 
Q 391 769 391 1353 
L 391 3406 
L 1303 3406 
L 1303 1353 
Q 1303 1063 1372 916 
Q 1494 656 1850 656 
Q 2306 656 2475 1025 
Q 2563 1225 2563 1553 
L 2563 3406 
L 3466 3406 
L 3466 0 
L 2600 0 
L 2600 481 
z
" transform="scale(0.015625)"/>
     </defs>
     <use xlink:href="#Helvetica-Bold-57"/>
     <use xlink:href="#Helvetica-Bold-52" transform="translate(33.296875 0)"/>
     <use xlink:href="#Helvetica-Bold-3" transform="translate(94.375 0)"/>
     <use xlink:href="#Helvetica-Bold-53" transform="translate(122.15625 0)"/>
     <use xlink:href="#Helvetica-Bold-4f" transform="translate(183.234375 0)"/>
     <use xlink:href="#Helvetica-Bold-44" transform="translate(211.015625 0)"/>
     <use xlink:href="#Helvetica-Bold-57" transform="translate(266.625 0)"/>
     <use xlink:href="#Helvetica-Bold-48" transform="translate(299.921875 0)"/>
     <use xlink:href="#Helvetica-Bold-44" transform="translate(355.53125 0)"/>
     <use xlink:href="#Helvetica-Bold-58" transform="translate(411.140625 0)"/>
     <use xlink:href="#Helvetica-Bold-3" transform="translate(472.21875 0)"/>
     <use xlink:href="#Helvetica-Bold-44" transform="translate(500 0)"/>
     <use xlink:href="#Helvetica-Bold-57" transform="translate(555.609375 0)"/>
     <use xlink:href="#Helvetica-Bold-3" transform="translate(588.90625 0)"/>
     <use xlink:href="#Helvetica-Bold-1b" transform="translate(616.6875 0)"/>
     <use xlink:href="#Helvetica-Bold-54" transform="translate(672.296875 0)"/>
    </g>
   </g>
   <g id="text_9">
    <!-- Barren Plateau Diagnostic: Gradient Variance Scaling vs. System Size -->
    <g transform="translate(115.002793 16.575) scale(0.125 -0.125)">
     <defs>
      <path id="Helvetica-Bold-25" d="M 2591 0 
L 503 0 
L 503 4606 
L 2741 4606 
Q 3588 4594 3941 4116 
Q 4153 3822 4153 3413 
Q 4153 2991 3941 2734 
Q 3822 2591 3591 2472 
Q 3944 2344 4123 2066 
Q 4303 1788 4303 1391 
Q 4303 981 4097 656 
Q 3966 441 3769 294 
Q 3547 125 3245 62 
Q 2944 0 2591 0 
z
M 2569 2028 
L 1422 2028 
L 1422 800 
L 2553 800 
Q 2856 800 3025 881 
Q 3331 1031 3331 1456 
Q 3331 1816 3034 1950 
Q 2869 2025 2569 2028 
z
M 3047 2906 
Q 3234 3019 3234 3309 
Q 3234 3631 2984 3734 
Q 2769 3806 2434 3806 
L 1422 3806 
L 1422 2791 
L 2553 2791 
Q 2856 2791 3047 2906 
z
" transform="scale(0.015625)"/>
      <path id="Helvetica-Bold-33" d="M 2444 1656 
L 1466 1656 
L 1466 0 
L 509 0 
L 509 4606 
L 2516 4606 
Q 3209 4606 3621 4250 
Q 4034 3894 4034 3147 
Q 4034 2331 3621 1993 
Q 3209 1656 2444 1656 
z
M 2894 2616 
Q 3081 2781 3081 3141 
Q 3081 3500 2892 3653 
Q 2703 3806 2363 3806 
L 1466 3806 
L 1466 2450 
L 2363 2450 
Q 2703 2450 2894 2616 
z
" transform="scale(0.015625)"/>
      <path id="Helvetica-Bold-27" d="M 2472 0 
L 488 0 
L 488 4606 
L 2472 4606 
Q 2900 4600 3184 4506 
Q 3669 4347 3969 3922 
Q 4209 3578 4296 3178 
Q 4384 2778 4384 2416 
Q 4384 1497 4016 859 
Q 3516 0 2472 0 
z
M 3188 3431 
Q 2966 3806 2309 3806 
L 1422 3806 
L 1422 800 
L 2309 800 
Q 2991 800 3259 1472 
Q 3406 1841 3406 2350 
Q 3406 3053 3188 3431 
z
" transform="scale(0.015625)"/>
      <path id="Helvetica-Bold-4a" d="M 1378 -597 
Q 1522 -719 1863 -719 
Q 2344 -719 2506 -397 
Q 2613 -191 2613 297 
L 2613 516 
Q 2484 297 2338 188 
Q 2072 -16 1647 -16 
Q 991 -16 598 445 
Q 206 906 206 1694 
Q 206 2453 584 2970 
Q 963 3488 1656 3488 
Q 1913 3488 2103 3409 
Q 2428 3275 2628 2916 
L 2628 3406 
L 3494 3406 
L 3494 175 
Q 3494 -484 3272 -819 
Q 2891 -1394 1809 -1394 
Q 1156 -1394 743 -1137 
Q 331 -881 288 -372 
L 1256 -372 
Q 1294 -528 1378 -597 
z
M 1228 1163 
Q 1409 731 1878 731 
Q 2191 731 2406 967 
Q 2622 1203 2622 1719 
Q 2622 2203 2417 2456 
Q 2213 2709 1869 2709 
Q 1400 2709 1222 2269 
Q 1128 2034 1128 1691 
Q 1128 1394 1228 1163 
z
" transform="scale(0.015625)"/>
      <path id="Helvetica-Bold-1d" d="M 1672 931 
L 1672 0 
L 725 0 
L 725 931 
L 1672 931 
z
M 725 2341 
L 725 3272 
L 1672 3272 
L 1672 2341 
L 725 2341 
z
" transform="scale(0.015625)"/>
      <path id="Helvetica-Bold-36" d="M 2159 666 
Q 2500 666 2713 741 
Q 3116 884 3116 1275 
Q 3116 1503 2916 1628 
Q 2716 1750 2288 1844 
L 1800 1953 
Q 1081 2116 806 2306 
Q 341 2625 341 3303 
Q 341 3922 791 4331 
Q 1241 4741 2113 4741 
Q 2841 4741 3355 4355 
Q 3869 3969 3894 3234 
L 2969 3234 
Q 2944 3650 2606 3825 
Q 2381 3941 2047 3941 
Q 1675 3941 1453 3791 
Q 1231 3641 1231 3372 
Q 1231 3125 1450 3003 
Q 1591 2922 2050 2813 
L 2844 2622 
Q 3366 2497 3631 2288 
Q 4044 1963 4044 1347 
Q 4044 716 3561 298 
Q 3078 -119 2197 -119 
Q 1297 -119 781 292 
Q 266 703 266 1422 
L 1184 1422 
Q 1228 1106 1356 950 
Q 1591 666 2159 666 
z
" transform="scale(0.015625)"/>
      <path id="Helvetica-Bold-59" d="M 81 3406 
L 1081 3406 
L 1791 894 
L 2516 3406 
L 3472 3406 
L 2244 0 
L 1303 0 
L 81 3406 
z
" transform="scale(0.015625)"/>
      <path id="Helvetica-Bold-11" d="M 400 931 
L 1347 931 
L 1347 0 
L 400 0 
L 400 931 
z
" transform="scale(0.015625)"/>
      <path id="Helvetica-Bold-5d" d="M 3044 0 
L 103 0 
L 103 694 
L 1850 2681 
L 222 2681 
L 222 3406 
L 2984 3406 
L 2984 2666 
L 1256 731 
L 3044 731 
L 3044 0 
z
" transform="scale(0.015625)"/>
     </defs>
     <use xlink:href="#Helvetica-Bold-25"/>
     <use xlink:href="#Helvetica-Bold-44" transform="translate(72.21875 0)"/>
     <use xlink:href="#Helvetica-Bold-55" transform="translate(127.828125 0)"/>
     <use xlink:href="#Helvetica-Bold-55" transform="translate(166.75 0)"/>
     <use xlink:href="#Helvetica-Bold-48" transform="translate(205.671875 0)"/>
     <use xlink:href="#Helvetica-Bold-51" transform="translate(261.28125 0)"/>
     <use xlink:href="#Helvetica-Bold-3" transform="translate(322.359375 0)"/>
     <use xlink:href="#Helvetica-Bold-33" transform="translate(350.140625 0)"/>
     <use xlink:href="#Helvetica-Bold-4f" transform="translate(416.84375 0)"/>
     <use xlink:href="#Helvetica-Bold-44" transform="translate(444.625 0)"/>
     <use xlink:href="#Helvetica-Bold-57" transform="translate(500.234375 0)"/>
     <use xlink:href="#Helvetica-Bold-48" transform="translate(533.53125 0)"/>
     <use xlink:href="#Helvetica-Bold-44" transform="translate(589.140625 0)"/>
     <use xlink:href="#Helvetica-Bold-58" transform="translate(644.75 0)"/>
     <use xlink:href="#Helvetica-Bold-3" transform="translate(705.828125 0)"/>
     <use xlink:href="#Helvetica-Bold-27" transform="translate(733.609375 0)"/>
     <use xlink:href="#Helvetica-Bold-4c" transform="translate(805.828125 0)"/>
     <use xlink:href="#Helvetica-Bold-44" transform="translate(833.609375 0)"/>
     <use xlink:href="#Helvetica-Bold-4a" transform="translate(889.21875 0)"/>
     <use xlink:href="#Helvetica-Bold-51" transform="translate(950.296875 0)"/>
     <use xlink:href="#Helvetica-Bold-52" transform="translate(1011.375 0)"/>
     <use xlink:href="#Helvetica-Bold-56" transform="translate(1072.453125 0)"/>
     <use xlink:href="#Helvetica-Bold-57" transform="translate(1128.0625 0)"/>
     <use xlink:href="#Helvetica-Bold-4c" transform="translate(1161.359375 0)"/>
     <use xlink:href="#Helvetica-Bold-46" transform="translate(1189.140625 0)"/>
     <use xlink:href="#Helvetica-Bold-1d" transform="translate(1244.75 0)"/>
     <use xlink:href="#Helvetica-Bold-3" transform="translate(1278.046875 0)"/>
     <use xlink:href="#Helvetica-Bold-2a" transform="translate(1305.828125 0)"/>
     <use xlink:href="#Helvetica-Bold-55" transform="translate(1383.609375 0)"/>
     <use xlink:href="#Helvetica-Bold-44" transform="translate(1422.53125 0)"/>
     <use xlink:href="#Helvetica-Bold-47" transform="translate(1478.140625 0)"/>
     <use xlink:href="#Helvetica-Bold-4c" transform="translate(1539.21875 0)"/>
     <use xlink:href="#Helvetica-Bold-48" transform="translate(1567 0)"/>
     <use xlink:href="#Helvetica-Bold-51" transform="translate(1622.609375 0)"/>
     <use xlink:href="#Helvetica-Bold-57" transform="translate(1683.6875 0)"/>
     <use xlink:href="#Helvetica-Bold-3" transform="translate(1716.984375 0)"/>
     <use xlink:href="#Helvetica-Bold-39" transform="translate(1744.765625 0)"/>
     <use xlink:href="#Helvetica-Bold-44" transform="translate(1806 0)"/>
     <use xlink:href="#Helvetica-Bold-55" transform="translate(1861.609375 0)"/>
     <use xlink:href="#Helvetica-Bold-4c" transform="translate(1900.53125 0)"/>
     <use xlink:href="#Helvetica-Bold-44" transform="translate(1928.3125 0)"/>
     <use xlink:href="#Helvetica-Bold-51" transform="translate(1983.921875 0)"/>
     <use xlink:href="#Helvetica-Bold-46" transform="translate(2045 0)"/>
     <use xlink:href="#Helvetica-Bold-48" transform="translate(2100.609375 0)"/>
     <use xlink:href="#Helvetica-Bold-3" transform="translate(2156.21875 0)"/>
     <use xlink:href="#Helvetica-Bold-36" transform="translate(2184 0)"/>
     <use xlink:href="#Helvetica-Bold-46" transform="translate(2250.703125 0)"/>
     <use xlink:href="#Helvetica-Bold-44" transform="translate(2306.3125 0)"/>
     <use xlink:href="#Helvetica-Bold-4f" transform="translate(2361.921875 0)"/>
     <use xlink:href="#Helvetica-Bold-4c" transform="translate(2389.703125 0)"/>
     <use xlink:href="#Helvetica-Bold-51" transform="translate(2417.484375 0)"/>
     <use xlink:href="#Helvetica-Bold-4a" transform="translate(2478.5625 0)"/>
     <use xlink:href="#Helvetica-Bold-3" transform="translate(2539.640625 0)"/>
     <use xlink:href="#Helvetica-Bold-59" transform="translate(2567.421875 0)"/>
     <use xlink:href="#Helvetica-Bold-56" transform="translate(2623.03125 0)"/>
     <use xlink:href="#Helvetica-Bold-11" transform="translate(2678.640625 0)"/>
     <use xlink:href="#Helvetica-Bold-3" transform="translate(2706.421875 0)"/>
     <use xlink:href="#Helvetica-Bold-36" transform="translate(2734.203125 0)"/>
     <use xlink:href="#Helvetica-Bold-5c" transform="translate(2800.90625 0)"/>
     <use xlink:href="#Helvetica-Bold-56" transform="translate(2856.515625 0)"/>
     <use xlink:href="#Helvetica-Bold-57" transform="translate(2912.125 0)"/>
     <use xlink:href="#Helvetica-Bold-48" transform="translate(2945.421875 0)"/>
     <use xlink:href="#Helvetica-Bold-50" transform="translate(3001.03125 0)"/>
     <use xlink:href="#Helvetica-Bold-3" transform="translate(3089.953125 0)"/>
     <use xlink:href="#Helvetica-Bold-36" transform="translate(3117.734375 0)"/>
     <use xlink:href="#Helvetica-Bold-4c" transform="translate(3184.4375 0)"/>
     <use xlink:href="#Helvetica-Bold-5d" transform="translate(3212.21875 0)"/>
     <use xlink:href="#Helvetica-Bold-48" transform="translate(3262.21875 0)"/>
    </g>
   </g>
   <g id="legend_1">
    <g id="patch_8">
     <path d="M 56.484102 299.23998 
L 338.366914 299.23998 
Q 340.366914 299.23998 340.366914 297.23998 
L 340.366914 252.555605 
Q 340.366914 250.555605 338.366914 250.555605 
L 56.484102 250.555605 
Q 54.484102 250.555605 54.484102 252.555605 
L 54.484102 297.23998 
Q 54.484102 299.23998 56.484102 299.23998 
z
" style="fill: #ffffff; opacity: 0.8; stroke: #cbd5e1; stroke-linejoin: miter"/>
    </g>
    <g id="line2d_46">
     <path d="M 58.484102 260.355605 
L 68.484102 260.355605 
L 78.484102 260.355605 
" style="fill: none; stroke: #7570b3; stroke-width: 2.2; stroke-linecap: square"/>
     <g>
      <use xlink:href="#m53cb088ebd" x="68.484102" y="260.355605" style="fill: #7570b3; stroke: #7570b3"/>
     </g>
    </g>
    <g id="text_10">
     <!-- Random Init ($O(2^{-N})$ Barren Plateau Decay) -->
     <g transform="translate(86.484102 263.855605) scale(0.1 -0.1)">
      <defs>
       <path id="Helvetica-35" d="M 2622 2488 
Q 3059 2488 3314 2663 
Q 3569 2838 3569 3294 
Q 3569 3784 3213 3963 
Q 3022 4056 2703 4056 
L 1184 4056 
L 1184 2488 
L 2622 2488 
z
M 563 4591 
L 2688 4591 
Q 3213 4591 3553 4438 
Q 4200 4144 4200 3353 
Q 4200 2941 4029 2678 
Q 3859 2416 3553 2256 
Q 3822 2147 3958 1969 
Q 4094 1791 4109 1391 
L 4131 775 
Q 4141 513 4175 384 
Q 4231 166 4375 103 
L 4375 0 
L 3613 0 
Q 3581 59 3562 153 
Q 3544 247 3531 516 
L 3494 1281 
Q 3472 1731 3159 1884 
Q 2981 1969 2600 1969 
L 1184 1969 
L 1184 0 
L 563 0 
L 563 4591 
z
" transform="scale(0.015625)"/>
       <path id="Helvetica-44" d="M 844 891 
Q 844 647 1022 506 
Q 1200 366 1444 366 
Q 1741 366 2019 503 
Q 2488 731 2488 1250 
L 2488 1703 
Q 2384 1638 2221 1594 
Q 2059 1550 1903 1531 
L 1563 1488 
Q 1256 1447 1103 1359 
Q 844 1213 844 891 
z
M 2206 2028 
Q 2400 2053 2466 2191 
Q 2503 2266 2503 2406 
Q 2503 2694 2298 2823 
Q 2094 2953 1713 2953 
Q 1272 2953 1088 2716 
Q 984 2584 953 2325 
L 428 2325 
Q 444 2944 830 3186 
Q 1216 3428 1725 3428 
Q 2316 3428 2684 3203 
Q 3050 2978 3050 2503 
L 3050 575 
Q 3050 488 3086 434 
Q 3122 381 3238 381 
Q 3275 381 3322 386 
Q 3369 391 3422 400 
L 3422 -16 
Q 3291 -53 3222 -62 
Q 3153 -72 3034 -72 
Q 2744 -72 2613 134 
Q 2544 244 2516 444 
Q 2344 219 2022 53 
Q 1700 -113 1313 -113 
Q 847 -113 551 170 
Q 256 453 256 878 
Q 256 1344 547 1600 
Q 838 1856 1309 1916 
L 2206 2028 
z
M 1741 3428 
L 1741 3428 
z
" transform="scale(0.015625)"/>
       <path id="Helvetica-51" d="M 413 3347 
L 947 3347 
L 947 2872 
Q 1184 3166 1450 3294 
Q 1716 3422 2041 3422 
Q 2753 3422 3003 2925 
Q 3141 2653 3141 2147 
L 3141 0 
L 2569 0 
L 2569 2109 
Q 2569 2416 2478 2603 
Q 2328 2916 1934 2916 
Q 1734 2916 1606 2875 
Q 1375 2806 1200 2600 
Q 1059 2434 1017 2257 
Q 975 2081 975 1753 
L 975 0 
L 413 0 
L 413 3347 
z
M 1734 3428 
L 1734 3428 
z
" transform="scale(0.015625)"/>
       <path id="Helvetica-47" d="M 769 1634 
Q 769 1097 997 734 
Q 1225 372 1728 372 
Q 2119 372 2370 708 
Q 2622 1044 2622 1672 
Q 2622 2306 2362 2611 
Q 2103 2916 1722 2916 
Q 1297 2916 1033 2591 
Q 769 2266 769 1634 
z
M 1616 3406 
Q 2000 3406 2259 3244 
Q 2409 3150 2600 2916 
L 2600 4606 
L 3141 4606 
L 3141 0 
L 2634 0 
L 2634 466 
Q 2438 156 2169 18 
Q 1900 -119 1553 -119 
Q 994 -119 584 351 
Q 175 822 175 1603 
Q 175 2334 548 2870 
Q 922 3406 1616 3406 
z
" transform="scale(0.015625)"/>
       <path id="Helvetica-52" d="M 1741 363 
Q 2300 363 2508 786 
Q 2716 1209 2716 1728 
Q 2716 2197 2566 2491 
Q 2328 2953 1747 2953 
Q 1231 2953 997 2559 
Q 763 2166 763 1609 
Q 763 1075 997 719 
Q 1231 363 1741 363 
z
M 1763 3444 
Q 2409 3444 2856 3012 
Q 3303 2581 3303 1744 
Q 3303 934 2909 406 
Q 2516 -122 1688 -122 
Q 997 -122 590 345 
Q 184 813 184 1600 
Q 184 2444 612 2944 
Q 1041 3444 1763 3444 
z
M 1744 3428 
L 1744 3428 
z
" transform="scale(0.015625)"/>
       <path id="Helvetica-50" d="M 413 3347 
L 969 3347 
L 969 2872 
Q 1169 3119 1331 3231 
Q 1609 3422 1963 3422 
Q 2363 3422 2606 3225 
Q 2744 3113 2856 2894 
Q 3044 3163 3297 3292 
Q 3550 3422 3866 3422 
Q 4541 3422 4784 2934 
Q 4916 2672 4916 2228 
L 4916 0 
L 4331 0 
L 4331 2325 
Q 4331 2659 4164 2784 
Q 3997 2909 3756 2909 
Q 3425 2909 3186 2687 
Q 2947 2466 2947 1947 
L 2947 0 
L 2375 0 
L 2375 2184 
Q 2375 2525 2294 2681 
Q 2166 2916 1816 2916 
Q 1497 2916 1236 2669 
Q 975 2422 975 1775 
L 975 0 
L 413 0 
L 413 3347 
z
" transform="scale(0.015625)"/>
       <path id="Helvetica-3" transform="scale(0.015625)"/>
       <path id="Helvetica-2c" d="M 628 4591 
L 1256 4591 
L 1256 0 
L 628 0 
L 628 4591 
z
" transform="scale(0.015625)"/>
       <path id="Helvetica-4c" d="M 413 3331 
L 984 3331 
L 984 0 
L 413 0 
L 413 3331 
z
M 413 4591 
L 984 4591 
L 984 3953 
L 413 3953 
L 413 4591 
z
" transform="scale(0.015625)"/>
       <path id="Helvetica-57" d="M 525 4281 
L 1094 4281 
L 1094 3347 
L 1628 3347 
L 1628 2888 
L 1094 2888 
L 1094 703 
Q 1094 528 1213 469 
Q 1278 434 1431 434 
Q 1472 434 1519 436 
Q 1566 438 1628 444 
L 1628 0 
Q 1531 -28 1426 -40 
Q 1322 -53 1200 -53 
Q 806 -53 665 148 
Q 525 350 525 672 
L 525 2888 
L 72 2888 
L 72 3347 
L 525 3347 
L 525 4281 
z
" transform="scale(0.015625)"/>
       <path id="Helvetica-b" d="M 1894 4666 
Q 1403 3713 1256 3263 
Q 1034 2578 1034 1681 
Q 1034 775 1288 25 
Q 1444 -438 1903 -1306 
L 1525 -1306 
Q 1069 -594 959 -397 
Q 850 -200 722 138 
Q 547 600 478 1125 
Q 444 1397 444 1644 
Q 444 2569 734 3291 
Q 919 3750 1503 4666 
L 1894 4666 
z
" transform="scale(0.015625)"/>
       <path id="DejaVuSans-Oblique-32" d="M 2919 4238 
Q 2400 4238 2003 3986 
Q 1606 3734 1313 3219 
Q 1125 2891 1026 2522 
Q 928 2153 928 1778 
Q 928 1128 1239 775 
Q 1550 422 2119 422 
Q 2631 422 3032 676 
Q 3434 931 3719 1434 
Q 3909 1772 4009 2142 
Q 4109 2513 4109 2881 
Q 4109 3528 3796 3883 
Q 3484 4238 2919 4238 
z
M 2100 -91 
Q 1241 -91 748 418 
Q 256 928 256 1813 
Q 256 2319 448 2847 
Q 641 3375 978 3788 
Q 1375 4272 1862 4511 
Q 2350 4750 2938 4750 
Q 3794 4750 4287 4245 
Q 4781 3741 4781 2869 
Q 4781 2331 4593 1812 
Q 4406 1294 4056 872 
Q 3656 384 3173 146 
Q 2691 -91 2100 -91 
z
" transform="scale(0.015625)"/>
       <path id="DejaVuSans-b" d="M 1984 4856 
Q 1566 4138 1362 3434 
Q 1159 2731 1159 2009 
Q 1159 1288 1364 580 
Q 1569 -128 1984 -844 
L 1484 -844 
Q 1016 -109 783 600 
Q 550 1309 550 2009 
Q 550 2706 781 3412 
Q 1013 4119 1484 4856 
L 1984 4856 
z
" transform="scale(0.015625)"/>
       <path id="DejaVuSans-c9c" d="M 678 2272 
L 4684 2272 
L 4684 1741 
L 678 1741 
L 678 2272 
z
" transform="scale(0.015625)"/>
       <path id="DejaVuSans-Oblique-31" d="M 1081 4666 
L 1931 4666 
L 3219 666 
L 4000 4666 
L 4616 4666 
L 3706 0 
L 2853 0 
L 1569 4025 
L 788 0 
L 172 0 
L 1081 4666 
z
" transform="scale(0.015625)"/>
       <path id="DejaVuSans-c" d="M 513 4856 
L 1013 4856 
Q 1481 4119 1714 3412 
Q 1947 2706 1947 2009 
Q 1947 1309 1714 600 
Q 1481 -109 1013 -844 
L 513 -844 
Q 928 -128 1133 580 
Q 1338 1288 1338 2009 
Q 1338 2731 1133 3434 
Q 928 4138 513 4856 
z
" transform="scale(0.015625)"/>
       <path id="Helvetica-25" d="M 2213 2650 
Q 2606 2650 2825 2759 
Q 3169 2931 3169 3378 
Q 3169 3828 2803 3984 
Q 2597 4072 2191 4072 
L 1081 4072 
L 1081 2650 
L 2213 2650 
z
M 2422 531 
Q 2994 531 3238 863 
Q 3391 1072 3391 1369 
Q 3391 1869 2944 2050 
Q 2706 2147 2316 2147 
L 1081 2147 
L 1081 531 
L 2422 531 
z
M 472 4591 
L 2444 4591 
Q 3250 4591 3591 4109 
Q 3791 3825 3791 3453 
Q 3791 3019 3544 2741 
Q 3416 2594 3175 2472 
Q 3528 2338 3703 2169 
Q 4013 1869 4013 1341 
Q 4013 897 3734 538 
Q 3319 0 2413 0 
L 472 0 
L 472 4591 
z
" transform="scale(0.015625)"/>
       <path id="Helvetica-55" d="M 428 3347 
L 963 3347 
L 963 2769 
Q 1028 2938 1284 3180 
Q 1541 3422 1875 3422 
Q 1891 3422 1928 3419 
Q 1966 3416 2056 3406 
L 2056 2813 
Q 2006 2822 1964 2825 
Q 1922 2828 1872 2828 
Q 1447 2828 1219 2554 
Q 991 2281 991 1925 
L 991 0 
L 428 0 
L 428 3347 
z
" transform="scale(0.015625)"/>
       <path id="Helvetica-48" d="M 1806 3422 
Q 2163 3422 2497 3255 
Q 2831 3088 3006 2822 
Q 3175 2569 3231 2231 
Q 3281 2000 3281 1494 
L 828 1494 
Q 844 984 1069 676 
Q 1294 369 1766 369 
Q 2206 369 2469 659 
Q 2619 828 2681 1050 
L 3234 1050 
Q 3213 866 3089 639 
Q 2966 413 2813 269 
Q 2556 19 2178 -69 
Q 1975 -119 1719 -119 
Q 1094 -119 659 336 
Q 225 791 225 1609 
Q 225 2416 662 2919 
Q 1100 3422 1806 3422 
z
M 2703 1941 
Q 2669 2306 2544 2525 
Q 2313 2931 1772 2931 
Q 1384 2931 1121 2651 
Q 859 2372 844 1941 
L 2703 1941 
z
M 1753 3428 
L 1753 3428 
z
" transform="scale(0.015625)"/>
       <path id="Helvetica-33" d="M 547 4591 
L 2613 4591 
Q 3225 4591 3600 4245 
Q 3975 3900 3975 3275 
Q 3975 2738 3640 2339 
Q 3306 1941 2613 1941 
L 1169 1941 
L 1169 0 
L 547 0 
L 547 4591 
z
M 3347 3272 
Q 3347 3778 2972 3959 
Q 2766 4056 2406 4056 
L 1169 4056 
L 1169 2466 
L 2406 2466 
Q 2825 2466 3086 2644 
Q 3347 2822 3347 3272 
z
" transform="scale(0.015625)"/>
       <path id="Helvetica-4f" d="M 428 4591 
L 991 4591 
L 991 0 
L 428 0 
L 428 4591 
z
" transform="scale(0.015625)"/>
       <path id="Helvetica-58" d="M 975 3347 
L 975 1125 
Q 975 869 1056 706 
Q 1206 406 1616 406 
Q 2203 406 2416 931 
Q 2531 1213 2531 1703 
L 2531 3347 
L 3094 3347 
L 3094 0 
L 2563 0 
L 2569 494 
Q 2459 303 2297 172 
Q 1975 -91 1516 -91 
Q 800 -91 541 388 
Q 400 644 400 1072 
L 400 3347 
L 975 3347 
z
M 1747 3428 
L 1747 3428 
z
" transform="scale(0.015625)"/>
       <path id="Helvetica-27" d="M 2250 531 
Q 2566 531 2769 597 
Q 3131 719 3363 1066 
Q 3547 1344 3628 1778 
Q 3675 2038 3675 2259 
Q 3675 3113 3336 3584 
Q 2997 4056 2244 4056 
L 1141 4056 
L 1141 531 
L 2250 531 
z
M 516 4591 
L 2375 4591 
Q 3322 4591 3844 3919 
Q 4309 3313 4309 2366 
Q 4309 1634 4034 1044 
Q 3550 0 2369 0 
L 516 0 
L 516 4591 
z
" transform="scale(0.015625)"/>
       <path id="Helvetica-46" d="M 1703 3444 
Q 2269 3444 2623 3169 
Q 2978 2894 3050 2222 
L 2503 2222 
Q 2453 2531 2275 2736 
Q 2097 2941 1703 2941 
Q 1166 2941 934 2416 
Q 784 2075 784 1575 
Q 784 1072 996 728 
Q 1209 384 1666 384 
Q 2016 384 2220 598 
Q 2425 813 2503 1184 
L 3050 1184 
Q 2956 519 2581 211 
Q 2206 -97 1622 -97 
Q 966 -97 575 383 
Q 184 863 184 1581 
Q 184 2463 612 2953 
Q 1041 3444 1703 3444 
z
M 1616 3428 
L 1616 3428 
z
" transform="scale(0.015625)"/>
       <path id="Helvetica-5c" d="M 2503 3347 
L 3125 3347 
Q 3006 3025 2597 1878 
Q 2291 1016 2084 472 
Q 1597 -809 1397 -1090 
Q 1197 -1372 709 -1372 
Q 591 -1372 527 -1362 
Q 463 -1353 369 -1328 
L 369 -816 
Q 516 -856 581 -865 
Q 647 -875 697 -875 
Q 853 -875 926 -823 
Q 1000 -772 1050 -697 
Q 1066 -672 1162 -440 
Q 1259 -209 1303 -97 
L 66 3347 
L 703 3347 
L 1600 622 
L 2503 3347 
z
M 1597 3428 
L 1597 3428 
z
" transform="scale(0.015625)"/>
       <path id="Helvetica-c" d="M 222 -1306 
Q 719 -338 863 106 
Q 1081 778 1081 1681 
Q 1081 2584 828 3334 
Q 672 3797 213 4666 
L 591 4666 
Q 1072 3897 1173 3717 
Q 1275 3538 1394 3222 
Q 1544 2831 1608 2450 
Q 1672 2069 1672 1716 
Q 1672 791 1378 66 
Q 1194 -400 613 -1306 
L 222 -1306 
z
" transform="scale(0.015625)"/>
      </defs>
      <use xlink:href="#Helvetica-35" transform="translate(0 0.665625)"/>
      <use xlink:href="#Helvetica-44" transform="translate(72.216797 0.665625)"/>
      <use xlink:href="#Helvetica-51" transform="translate(127.832031 0.665625)"/>
      <use xlink:href="#Helvetica-47" transform="translate(183.447266 0.665625)"/>
      <use xlink:href="#Helvetica-52" transform="translate(239.0625 0.665625)"/>
      <use xlink:href="#Helvetica-50" transform="translate(294.677734 0.665625)"/>
      <use xlink:href="#Helvetica-3" transform="translate(377.978516 0.665625)"/>
      <use xlink:href="#Helvetica-2c" transform="translate(405.761719 0.665625)"/>
      <use xlink:href="#Helvetica-51" transform="translate(433.544922 0.665625)"/>
      <use xlink:href="#Helvetica-4c" transform="translate(489.160156 0.665625)"/>
      <use xlink:href="#Helvetica-57" transform="translate(511.376953 0.665625)"/>
      <use xlink:href="#Helvetica-3" transform="translate(539.160156 0.665625)"/>
      <use xlink:href="#Helvetica-b" transform="translate(566.943359 0.665625)"/>
      <use xlink:href="#DejaVuSans-Oblique-32" transform="translate(600.244141 0.665625)"/>
      <use xlink:href="#DejaVuSans-b" transform="translate(678.955078 0.665625)"/>
      <use xlink:href="#DejaVuSans-15" transform="translate(717.96875 0.665625)"/>
      <use xlink:href="#DejaVuSans-c9c" transform="translate(782.548828 41.965625) scale(0.7)"/>
      <use xlink:href="#DejaVuSans-Oblique-31" transform="translate(841.201172 41.965625) scale(0.7)"/>
      <use xlink:href="#DejaVuSans-c" transform="translate(896.298828 0.665625)"/>
      <use xlink:href="#Helvetica-3" transform="translate(935.3125 0.665625)"/>
      <use xlink:href="#Helvetica-25" transform="translate(963.095703 0.665625)"/>
      <use xlink:href="#Helvetica-44" transform="translate(1029.794922 0.665625)"/>
      <use xlink:href="#Helvetica-55" transform="translate(1085.410156 0.665625)"/>
      <use xlink:href="#Helvetica-55" transform="translate(1118.710938 0.665625)"/>
      <use xlink:href="#Helvetica-48" transform="translate(1152.011719 0.665625)"/>
      <use xlink:href="#Helvetica-51" transform="translate(1207.626953 0.665625)"/>
      <use xlink:href="#Helvetica-3" transform="translate(1263.242188 0.665625)"/>
      <use xlink:href="#Helvetica-33" transform="translate(1291.025391 0.665625)"/>
      <use xlink:href="#Helvetica-4f" transform="translate(1357.724609 0.665625)"/>
      <use xlink:href="#Helvetica-44" transform="translate(1379.941406 0.665625)"/>
      <use xlink:href="#Helvetica-57" transform="translate(1435.556641 0.665625)"/>
      <use xlink:href="#Helvetica-48" transform="translate(1463.339844 0.665625)"/>
      <use xlink:href="#Helvetica-44" transform="translate(1518.955078 0.665625)"/>
      <use xlink:href="#Helvetica-58" transform="translate(1574.570312 0.665625)"/>
      <use xlink:href="#Helvetica-3" transform="translate(1630.185547 0.665625)"/>
      <use xlink:href="#Helvetica-27" transform="translate(1657.96875 0.665625)"/>
      <use xlink:href="#Helvetica-48" transform="translate(1730.185547 0.665625)"/>
      <use xlink:href="#Helvetica-46" transform="translate(1785.800781 0.665625)"/>
      <use xlink:href="#Helvetica-44" transform="translate(1835.800781 0.665625)"/>
      <use xlink:href="#Helvetica-5c" transform="translate(1891.416016 0.665625)"/>
      <use xlink:href="#Helvetica-c" transform="translate(1941.416016 0.665625)"/>
     </g>
    </g>
    <g id="line2d_47">
     <path d="M 58.484102 275.055605 
L 68.484102 275.055605 
L 78.484102 275.055605 
" style="fill: none; stroke-dasharray: 8.14,3.52; stroke-dashoffset: 0; stroke: #1b9e77; stroke-width: 2.2"/>
     <g>
      <use xlink:href="#m1bd8966aa9" x="68.484102" y="275.055605" style="fill: #1b9e77; stroke: #1b9e77; stroke-linejoin: miter"/>
     </g>
    </g>
    <g id="text_11">
     <!-- Classical Hartree-Fock (Preserved Variance) -->
     <g transform="translate(86.484102 278.555605) scale(0.1 -0.1)">
      <defs>
       <path id="Helvetica-26" d="M 2422 4716 
Q 3294 4716 3775 4256 
Q 4256 3797 4309 3213 
L 3703 3213 
Q 3600 3656 3292 3915 
Q 2984 4175 2428 4175 
Q 1750 4175 1333 3698 
Q 916 3222 916 2238 
Q 916 1431 1292 929 
Q 1669 428 2416 428 
Q 3103 428 3463 956 
Q 3653 1234 3747 1688 
L 4353 1688 
Q 4272 963 3816 472 
Q 3269 -119 2341 -119 
Q 1541 -119 997 366 
Q 281 1006 281 2344 
Q 281 3359 819 4009 
Q 1400 4716 2422 4716 
z
M 2297 4716 
L 2297 4716 
z
" transform="scale(0.015625)"/>
       <path id="Helvetica-56" d="M 747 1050 
Q 772 769 888 619 
Q 1100 347 1625 347 
Q 1938 347 2175 483 
Q 2413 619 2413 903 
Q 2413 1119 2222 1231 
Q 2100 1300 1741 1391 
L 1294 1503 
Q 866 1609 663 1741 
Q 300 1969 300 2372 
Q 300 2847 642 3140 
Q 984 3434 1563 3434 
Q 2319 3434 2653 2991 
Q 2863 2709 2856 2384 
L 2325 2384 
Q 2309 2575 2191 2731 
Q 1997 2953 1519 2953 
Q 1200 2953 1036 2831 
Q 872 2709 872 2509 
Q 872 2291 1088 2159 
Q 1213 2081 1456 2022 
L 1828 1931 
Q 2434 1784 2641 1647 
Q 2969 1431 2969 969 
Q 2969 522 2630 197 
Q 2291 -128 1597 -128 
Q 850 -128 539 211 
Q 228 550 206 1050 
L 747 1050 
z
M 1578 3428 
L 1578 3428 
z
" transform="scale(0.015625)"/>
       <path id="Helvetica-2b" d="M 503 4591 
L 1131 4591 
L 1131 2694 
L 3519 2694 
L 3519 4591 
L 4147 4591 
L 4147 0 
L 3519 0 
L 3519 2147 
L 1131 2147 
L 1131 0 
L 503 0 
L 503 4591 
z
" transform="scale(0.015625)"/>
       <path id="Helvetica-10" d="M 266 2072 
L 1834 2072 
L 1834 1494 
L 266 1494 
L 266 2072 
z
" transform="scale(0.015625)"/>
       <path id="Helvetica-29" d="M 547 4591 
L 3731 4591 
L 3731 4028 
L 1169 4028 
L 1169 2634 
L 3422 2634 
L 3422 2088 
L 1169 2088 
L 1169 0 
L 547 0 
L 547 4591 
z
" transform="scale(0.015625)"/>
       <path id="Helvetica-4e" d="M 400 4591 
L 941 4591 
L 941 1925 
L 2384 3347 
L 3103 3347 
L 1822 2094 
L 3175 0 
L 2456 0 
L 1413 1688 
L 941 1256 
L 941 0 
L 400 0 
L 400 4591 
z
" transform="scale(0.015625)"/>
       <path id="Helvetica-59" d="M 688 3347 
L 1581 622 
L 2516 3347 
L 3131 3347 
L 1869 0 
L 1269 0 
L 34 3347 
L 688 3347 
z
" transform="scale(0.015625)"/>
       <path id="Helvetica-39" d="M 850 4591 
L 2169 681 
L 3472 4591 
L 4169 4591 
L 2494 0 
L 1834 0 
L 163 4591 
L 850 4591 
z
" transform="scale(0.015625)"/>
      </defs>
      <use xlink:href="#Helvetica-26"/>
      <use xlink:href="#Helvetica-4f" transform="translate(72.21875 0)"/>
      <use xlink:href="#Helvetica-44" transform="translate(94.4375 0)"/>
      <use xlink:href="#Helvetica-56" transform="translate(150.046875 0)"/>
      <use xlink:href="#Helvetica-56" transform="translate(200.046875 0)"/>
      <use xlink:href="#Helvetica-4c" transform="translate(250.046875 0)"/>
      <use xlink:href="#Helvetica-46" transform="translate(272.265625 0)"/>
      <use xlink:href="#Helvetica-44" transform="translate(322.265625 0)"/>
      <use xlink:href="#Helvetica-4f" transform="translate(377.875 0)"/>
      <use xlink:href="#Helvetica-3" transform="translate(400.09375 0)"/>
      <use xlink:href="#Helvetica-2b" transform="translate(427.875 0)"/>
      <use xlink:href="#Helvetica-44" transform="translate(500.09375 0)"/>
      <use xlink:href="#Helvetica-55" transform="translate(555.703125 0)"/>
      <use xlink:href="#Helvetica-57" transform="translate(589 0)"/>
      <use xlink:href="#Helvetica-55" transform="translate(616.78125 0)"/>
      <use xlink:href="#Helvetica-48" transform="translate(650.078125 0)"/>
      <use xlink:href="#Helvetica-48" transform="translate(705.6875 0)"/>
      <use xlink:href="#Helvetica-10" transform="translate(761.296875 0)"/>
      <use xlink:href="#Helvetica-29" transform="translate(794.59375 0)"/>
      <use xlink:href="#Helvetica-52" transform="translate(855.671875 0)"/>
      <use xlink:href="#Helvetica-46" transform="translate(911.28125 0)"/>
      <use xlink:href="#Helvetica-4e" transform="translate(961.28125 0)"/>
      <use xlink:href="#Helvetica-3" transform="translate(1011.28125 0)"/>
      <use xlink:href="#Helvetica-b" transform="translate(1039.0625 0)"/>
      <use xlink:href="#Helvetica-33" transform="translate(1072.359375 0)"/>
      <use xlink:href="#Helvetica-55" transform="translate(1139.0625 0)"/>
      <use xlink:href="#Helvetica-48" transform="translate(1172.359375 0)"/>
      <use xlink:href="#Helvetica-56" transform="translate(1227.96875 0)"/>
      <use xlink:href="#Helvetica-48" transform="translate(1277.96875 0)"/>
      <use xlink:href="#Helvetica-55" transform="translate(1333.578125 0)"/>
      <use xlink:href="#Helvetica-59" transform="translate(1366.875 0)"/>
      <use xlink:href="#Helvetica-48" transform="translate(1416.875 0)"/>
      <use xlink:href="#Helvetica-47" transform="translate(1472.484375 0)"/>
      <use xlink:href="#Helvetica-3" transform="translate(1528.09375 0)"/>
      <use xlink:href="#Helvetica-39" transform="translate(1555.875 0)"/>
      <use xlink:href="#Helvetica-44" transform="translate(1615.203125 0)"/>
      <use xlink:href="#Helvetica-55" transform="translate(1670.8125 0)"/>
      <use xlink:href="#Helvetica-4c" transform="translate(1704.109375 0)"/>
      <use xlink:href="#Helvetica-44" transform="translate(1726.328125 0)"/>
      <use xlink:href="#Helvetica-51" transform="translate(1781.9375 0)"/>
      <use xlink:href="#Helvetica-46" transform="translate(1837.546875 0)"/>
      <use xlink:href="#Helvetica-48" transform="translate(1887.546875 0)"/>
      <use xlink:href="#Helvetica-c" transform="translate(1943.15625 0)"/>
     </g>
    </g>
    <g id="line2d_48">
     <path d="M 58.484102 289.59623 
L 68.484102 289.59623 
L 78.484102 289.59623 
" style="fill: none; stroke: #2b5c8f; stroke-width: 2.4; stroke-linecap: square"/>
     <g>
      <use xlink:href="#mc6685682d6" x="68.484102" y="289.59623" style="fill: #2b5c8f; stroke: #2b5c8f; stroke-linejoin: miter"/>
     </g>
    </g>
    <g id="text_12">
     <!-- Transformer Warm-Start (Decays towards Plateau at 8q) -->
     <g transform="translate(86.484102 293.09623) scale(0.1 -0.1)">
      <defs>
       <path id="Helvetica-37" d="M 3828 4591 
L 3828 4044 
L 2281 4044 
L 2281 0 
L 1650 0 
L 1650 4044 
L 103 4044 
L 103 4591 
L 3828 4591 
z
" transform="scale(0.015625)"/>
       <path id="Helvetica-49" d="M 553 3856 
Q 566 4206 675 4369 
Q 872 4656 1434 4656 
Q 1488 4656 1544 4653 
Q 1600 4650 1672 4644 
L 1672 4131 
Q 1584 4138 1545 4139 
Q 1506 4141 1472 4141 
Q 1216 4141 1166 4008 
Q 1116 3875 1116 3331 
L 1672 3331 
L 1672 2888 
L 1109 2888 
L 1109 0 
L 553 0 
L 553 2888 
L 88 2888 
L 88 3331 
L 553 3331 
L 553 3856 
z
" transform="scale(0.015625)"/>
       <path id="Helvetica-3a" d="M 791 4591 
L 1656 856 
L 2694 4591 
L 3369 4591 
L 4406 856 
L 5272 4591 
L 5953 4591 
L 4747 0 
L 4094 0 
L 3034 3806 
L 1969 0 
L 1316 0 
L 116 4591 
L 791 4591 
z
" transform="scale(0.015625)"/>
       <path id="Helvetica-36" d="M 894 1481 
Q 916 1091 1078 847 
Q 1388 391 2169 391 
Q 2519 391 2806 491 
Q 3363 684 3363 1184 
Q 3363 1559 3128 1719 
Q 2891 1875 2384 1991 
L 1763 2131 
Q 1153 2269 900 2434 
Q 463 2722 463 3294 
Q 463 3913 891 4309 
Q 1319 4706 2103 4706 
Q 2825 4706 3329 4357 
Q 3834 4009 3834 3244 
L 3250 3244 
Q 3203 3613 3050 3809 
Q 2766 4169 2084 4169 
Q 1534 4169 1293 3937 
Q 1053 3706 1053 3400 
Q 1053 3063 1334 2906 
Q 1519 2806 2169 2656 
L 2813 2509 
Q 3278 2403 3531 2219 
Q 3969 1897 3969 1284 
Q 3969 522 3414 194 
Q 2859 -134 2125 -134 
Q 1269 -134 784 303 
Q 300 738 309 1481 
L 894 1481 
z
M 2150 4716 
L 2150 4716 
z
" transform="scale(0.015625)"/>
       <path id="Helvetica-5a" d="M 672 3347 
L 1316 709 
L 1969 3347 
L 2600 3347 
L 3256 725 
L 3941 3347 
L 4503 3347 
L 3531 0 
L 2947 0 
L 2266 2591 
L 1606 0 
L 1022 0 
L 56 3347 
L 672 3347 
z
" transform="scale(0.015625)"/>
       <path id="Helvetica-1b" d="M 1741 2600 
Q 2113 2600 2322 2808 
Q 2531 3016 2531 3303 
Q 2531 3553 2331 3762 
Q 2131 3972 1722 3972 
Q 1316 3972 1134 3762 
Q 953 3553 953 3272 
Q 953 2956 1187 2778 
Q 1422 2600 1741 2600 
z
M 1775 384 
Q 2166 384 2423 595 
Q 2681 806 2681 1225 
Q 2681 1659 2415 1884 
Q 2150 2109 1734 2109 
Q 1331 2109 1076 1879 
Q 822 1650 822 1244 
Q 822 894 1055 639 
Q 1288 384 1775 384 
z
M 975 2384 
Q 741 2484 609 2619 
Q 363 2869 363 3269 
Q 363 3769 725 4128 
Q 1088 4488 1753 4488 
Q 2397 4488 2762 4148 
Q 3128 3809 3128 3356 
Q 3128 2938 2916 2678 
Q 2797 2531 2547 2391 
Q 2825 2263 2984 2097 
Q 3281 1784 3281 1284 
Q 3281 694 2884 283 
Q 2488 -128 1763 -128 
Q 1109 -128 657 226 
Q 206 581 206 1256 
Q 206 1653 400 1942 
Q 594 2231 975 2384 
z
" transform="scale(0.015625)"/>
       <path id="Helvetica-54" d="M 775 1628 
Q 775 1194 897 900 
Q 1113 378 1669 378 
Q 2256 378 2478 928 
Q 2600 1231 2600 1703 
Q 2600 2138 2466 2428 
Q 2238 2925 1663 2925 
Q 1297 2925 1036 2608 
Q 775 2291 775 1628 
z
M 1606 3422 
Q 2022 3422 2306 3213 
Q 2463 3100 2606 2881 
L 2606 3347 
L 3141 3347 
L 3141 -1334 
L 2575 -1334 
L 2575 384 
Q 2434 159 2186 26 
Q 1938 -106 1566 -106 
Q 1031 -106 609 312 
Q 188 731 188 1588 
Q 188 2391 583 2906 
Q 978 3422 1606 3422 
z
" transform="scale(0.015625)"/>
      </defs>
      <use xlink:href="#Helvetica-37"/>
      <use xlink:href="#Helvetica-55" transform="translate(57.421875 0)"/>
      <use xlink:href="#Helvetica-44" transform="translate(90.71875 0)"/>
      <use xlink:href="#Helvetica-51" transform="translate(146.328125 0)"/>
      <use xlink:href="#Helvetica-56" transform="translate(201.9375 0)"/>
      <use xlink:href="#Helvetica-49" transform="translate(251.9375 0)"/>
      <use xlink:href="#Helvetica-52" transform="translate(279.71875 0)"/>
      <use xlink:href="#Helvetica-55" transform="translate(335.328125 0)"/>
      <use xlink:href="#Helvetica-50" transform="translate(368.625 0)"/>
      <use xlink:href="#Helvetica-48" transform="translate(451.921875 0)"/>
      <use xlink:href="#Helvetica-55" transform="translate(507.53125 0)"/>
      <use xlink:href="#Helvetica-3" transform="translate(540.828125 0)"/>
      <use xlink:href="#Helvetica-3a" transform="translate(568.609375 0)"/>
      <use xlink:href="#Helvetica-44" transform="translate(659.34375 0)"/>
      <use xlink:href="#Helvetica-55" transform="translate(714.953125 0)"/>
      <use xlink:href="#Helvetica-50" transform="translate(748.25 0)"/>
      <use xlink:href="#Helvetica-10" transform="translate(831.546875 0)"/>
      <use xlink:href="#Helvetica-36" transform="translate(864.84375 0)"/>
      <use xlink:href="#Helvetica-57" transform="translate(931.546875 0)"/>
      <use xlink:href="#Helvetica-44" transform="translate(959.328125 0)"/>
      <use xlink:href="#Helvetica-55" transform="translate(1014.9375 0)"/>
      <use xlink:href="#Helvetica-57" transform="translate(1048.234375 0)"/>
      <use xlink:href="#Helvetica-3" transform="translate(1076.015625 0)"/>
      <use xlink:href="#Helvetica-b" transform="translate(1103.796875 0)"/>
      <use xlink:href="#Helvetica-27" transform="translate(1137.09375 0)"/>
      <use xlink:href="#Helvetica-48" transform="translate(1209.3125 0)"/>
      <use xlink:href="#Helvetica-46" transform="translate(1264.921875 0)"/>
      <use xlink:href="#Helvetica-44" transform="translate(1314.921875 0)"/>
      <use xlink:href="#Helvetica-5c" transform="translate(1370.53125 0)"/>
      <use xlink:href="#Helvetica-56" transform="translate(1420.53125 0)"/>
      <use xlink:href="#Helvetica-3" transform="translate(1470.53125 0)"/>
      <use xlink:href="#Helvetica-57" transform="translate(1498.3125 0)"/>
      <use xlink:href="#Helvetica-52" transform="translate(1526.09375 0)"/>
      <use xlink:href="#Helvetica-5a" transform="translate(1581.703125 0)"/>
      <use xlink:href="#Helvetica-44" transform="translate(1653.921875 0)"/>
      <use xlink:href="#Helvetica-55" transform="translate(1709.53125 0)"/>
      <use xlink:href="#Helvetica-47" transform="translate(1742.828125 0)"/>
      <use xlink:href="#Helvetica-56" transform="translate(1798.4375 0)"/>
      <use xlink:href="#Helvetica-3" transform="translate(1848.4375 0)"/>
      <use xlink:href="#Helvetica-33" transform="translate(1876.21875 0)"/>
      <use xlink:href="#Helvetica-4f" transform="translate(1942.921875 0)"/>
      <use xlink:href="#Helvetica-44" transform="translate(1965.140625 0)"/>
      <use xlink:href="#Helvetica-57" transform="translate(2020.75 0)"/>
      <use xlink:href="#Helvetica-48" transform="translate(2048.53125 0)"/>
      <use xlink:href="#Helvetica-44" transform="translate(2104.140625 0)"/>
      <use xlink:href="#Helvetica-58" transform="translate(2159.75 0)"/>
      <use xlink:href="#Helvetica-3" transform="translate(2215.359375 0)"/>
      <use xlink:href="#Helvetica-44" transform="translate(2243.140625 0)"/>
      <use xlink:href="#Helvetica-57" transform="translate(2298.75 0)"/>
      <use xlink:href="#Helvetica-3" transform="translate(2326.53125 0)"/>
      <use xlink:href="#Helvetica-1b" transform="translate(2354.3125 0)"/>
      <use xlink:href="#Helvetica-54" transform="translate(2409.921875 0)"/>
      <use xlink:href="#Helvetica-c" transform="translate(2465.53125 0)"/>
     </g>
    </g>
   </g>
  </g>
 </g>
 <defs>
  <clipPath id="pc2021c9f99">
   <rect x="49.484102" y="28.575" width="545.765898" height="275.66498"/>
  </clipPath>
 </defs>
</svg>
